<svg width="103" height="91" fill="none" xmlns="http://www.w3.org/2000/svg"><path d="M46.437 64.656a3.4 3.4 0 00-1.29.243c-.409.164-.78.406-1.095.713a3.3 3.3 0 00-.732 1.071 3.25 3.25 0 00-.258 1.267v.996c0 .305.124.597.343.812.219.216.516.337.826.337h7.787c.305 0 .599-.118.817-.328a1.14 1.14 0 00.351-.796v-.945a3.248 3.248 0 00-.247-1.268 3.291 3.291 0 00-.725-1.077 3.35 3.35 0 00-1.09-.721 3.396 3.396 0 00-1.287-.253l-3.4-.051zM57.34 70.07h7.787c.306 0 .599-.118.817-.328a1.14 1.14 0 00.351-.796V68a3.248 3.248 0 00-.247-1.268 3.29 3.29 0 00-.724-1.078 3.354 3.354 0 00-1.09-.72 3.398 3.398 0 00-1.287-.254h-3.4a3.41 3.41 0 00-1.29.244 3.34 3.34 0 00-1.095.712 3.28 3.28 0 00-.733 1.072c-.17.401-.257.832-.257 1.266v.97c.007.301.133.587.351.797.218.21.512.327.817.327z" fill="#FCE4D4"/><path d="M40.987 41.75a20.159 20.159 0 01-6.36-10.648l-.208.23-.155.153-.156.204-8.15 7.993c-.24.24-.567.378-.91.383h-.259a1.28 1.28 0 01-.7-.357l-8.125-8.07-.156-.204-.234-.153a6.88 6.88 0 01-1.773-4.651 6.883 6.883 0 011.838-4.627 7.102 7.102 0 014.51-2.235 7.147 7.147 0 014.874 1.299 7.139 7.139 0 014.802-1.497 7.114 7.114 0 014.594 2.033l.312.357a20.17 20.17 0 016.308-10.214H8.358a6.022 6.022 0 00-4.117 1.665 5.83 5.83 0 00-1.801 4.004v21.476c-.004.632.12 1.26.364 1.845a4.795 4.795 0 001.056 1.566c.453.448.992.804 1.586 1.047.594.243 1.23.368 1.874.368a3.875 3.875 0 012.725 1.123l.182.256 4.05 6.792a1.102 1.102 0 001.323 0l4.387-7.022a3.82 3.82 0 012.596-1.098h13.602a5.703 5.703 0 012.152-1.58 5.806 5.806 0 012.65-.438z" fill="#B2A6E8"/><path d="M54.718 64.605a5.913 5.913 0 012.096-1.857 6.023 6.023 0 012.732-.697h1.116l5.191-3.856a2.752 2.752 0 001.082-1.703 2.72 2.72 0 00-.38-1.974l-2.597-4.136a5.581 5.581 0 01-.649-4.418c.122-.436.296-.856.52-1.251a20.57 20.57 0 01-8.973 2.156 20.58 20.58 0 01-9.016-1.978 5.49 5.49 0 01-.312 5.465l-2.595 4.137a2.72 2.72 0 00-.392 1.968 2.751 2.751 0 001.067 1.709l5.191 3.881h1.116c.95.017 1.882.258 2.717.703a5.911 5.911 0 012.086 1.85z" fill="#FCE4D4"/><path d="M75.277 44.304l.156.179 5.399 5.311 5.815-5.745a3.24 3.24 0 00.773-1.045 3.172 3.172 0 00-.664-3.608 3.276 3.276 0 00-1.096-.712 3.319 3.319 0 00-2.572.059 3.27 3.27 0 00-1.062.76l-.26.256a1.362 1.362 0 01-1.843 0l-.285-.281a3.302 3.302 0 00-2.279-.839 3.298 3.298 0 00-2.237.941 3.193 3.193 0 00-.957 2.201c-.02.828.286 1.63.852 2.242l.26.28z" fill="#F7BCE1"/><path d="M57.366 18.615a9.045 9.045 0 004.996-3.223 8.79 8.79 0 001.857-5.586 7.166 7.166 0 00-2.124-5.109 7.407 7.407 0 00-5.17-2.143h-.234a10.103 10.103 0 01-1.324 3.753 1.29 1.29 0 01-.725.585c-.307.1-.64.082-.936-.048a4.948 4.948 0 00-2.025-.435 4.994 4.994 0 00-2.584.688 4.886 4.886 0 00-1.84 1.914 4.786 4.786 0 00.35 5.06 8.761 8.761 0 004.09 3.912 8.958 8.958 0 005.67.632z" fill="#F2E094"/><path d="M26.321 23.314l-.363.332c-.24.24-.566.378-.909.383a1.308 1.308 0 01-.908-.383l-.338-.332a4.46 4.46 0 00-1.445-1.041 4.526 4.526 0 00-5.006.873 4.385 4.385 0 00-.993 1.466 4.328 4.328 0 00.064 3.452 4.395 4.395 0 001.047 1.43l.337.331.156.205L24.997 37l7.087-6.92.155-.178.338-.332a4.398 4.398 0 001.058-1.421 4.332 4.332 0 00-.887-4.925 4.472 4.472 0 00-1.491-.977 4.53 4.53 0 00-3.509.063 4.464 4.464 0 00-1.453 1.03l.026-.026z" fill="#EFA0A0"/><path d="M54.51 44.38a18.069 18.069 0 0010.341-3.068 17.613 17.613 0 006.651-8.372 17.3 17.3 0 00.529-10.613 17.538 17.538 0 00-5.788-8.972 11.133 11.133 0 01-3.117 4.935 11.404 11.404 0 01-5.216 2.726c-.853.18-1.723.265-2.595.255a11.432 11.432 0 01-5.796-1.625 11.184 11.184 0 01-4.12-4.325 6.889 6.889 0 01-1.272-2.86 17.618 17.618 0 00-6.59 8.777 17.322 17.322 0 00-.061 10.91 17.609 17.609 0 006.49 8.85A18.084 18.084 0 0054.51 44.38zm14.38 0a3.206 3.206 0 00-1.567.466 3.137 3.137 0 00-1.122 1.173 3.074 3.074 0 00.094 3.111l2.596 4.137a5.214 5.214 0 01.714 3.808 5.278 5.278 0 01-2.116 3.265l-2.803 2.069a5.958 5.958 0 012.789 1.738 5.808 5.808 0 011.416 2.935l3.79-3.243a9.62 9.62 0 003.415-5.75 9.519 9.519 0 00-1.183-6.558l-3.297-5.567a3.14 3.14 0 00-1.147-1.15 3.207 3.207 0 00-1.578-.433zM40.57 67.005a5.809 5.809 0 011.433-2.925 5.959 5.959 0 012.799-1.722l-2.804-2.094a5.274 5.274 0 01-2.059-3.287 5.216 5.216 0 01.761-3.787l2.596-4.136a3.085 3.085 0 00.381-2.445 3.097 3.097 0 00-.57-1.132 3.156 3.156 0 00-.979-.816 3.187 3.187 0 00-2.353-.273 3.134 3.134 0 00-1.878 1.423l-3.375 5.643a9.52 9.52 0 00-1.24 6.59 9.62 9.62 0 003.42 5.795l3.869 3.166zm-4.23.205a4.342 4.342 0 00-1.304-1.094 4.411 4.411 0 00-1.63-.515h-.493a4.407 4.407 0 00-2.726.919l-1.194.945a4.265 4.265 0 00-.727 6.052l9.32 11.618-.182-6.639a7.731 7.731 0 01.742-3.466 7.86 7.86 0 012.217-2.79l-4.024-5.03z" fill="#FCE4D4"/><path d="M95.784 30.643h-21a20.124 20.124 0 01-6.567 11.312 5.818 5.818 0 013.322.613 5.663 5.663 0 01.538-3.283 5.783 5.783 0 012.296-2.44 5.917 5.917 0 016.46.36 5.937 5.937 0 017.954.842 5.714 5.714 0 011.426 3.99 5.727 5.727 0 01-1.723 3.876l-6.723 6.639c-.24.24-.566.378-.909.383h-.39a1.279 1.279 0 01-.7-.358l-3.4-3.345.7 1.2a11.926 11.926 0 011.662 6.257h5.01a3.43 3.43 0 012.388.97l.181.255 3.375 5.567a.683.683 0 00.753 0l3.582-5.77a3.41 3.41 0 011.108-.723 3.45 3.45 0 011.306-.248 3.83 3.83 0 002.696-1.083c.355-.347.636-.759.829-1.213a3.67 3.67 0 00.291-1.432v-17.67a4.556 4.556 0 00-1.258-3.246 4.705 4.705 0 00-3.207-1.453z" fill="#D7EAFF"/><path d="M73.097 67.337l-4.154 5.107a7.826 7.826 0 012.103 2.78c.48 1.069.711 2.23.675 3.4l-.234 6.92 9.657-11.849a4.25 4.25 0 00.438-4.808c-.28-.5-.659-.94-1.113-1.295l-1.194-.945a4.413 4.413 0 00-1.52-.781 4.457 4.457 0 00-3.346.36 4.368 4.368 0 00-1.312 1.085v.026zm-9.189 5.694a5.269 5.269 0 00-2.084.32 5.202 5.202 0 00-1.783 1.11 5.288 5.288 0 00-1.234 1.683 5.214 5.214 0 00-.48 2.02 9.817 9.817 0 002.72 7.088 10.145 10.145 0 007.014 3.126.659.659 0 00.55-.162.64.64 0 00.203-.527l.312-9.193a5.262 5.262 0 00-1.443-3.8 5.438 5.438 0 00-3.749-1.69l-.026.025zm-18.483-.076h-.156a5.439 5.439 0 00-3.73 1.672 5.263 5.263 0 00-1.461 3.767l.233 9.193c0 .383.286.817.753.69a10.209 10.209 0 003.847-.857 10.072 10.072 0 003.219-2.243 9.887 9.887 0 002.095-3.288 9.763 9.763 0 00.651-3.827 5.274 5.274 0 00-1.671-3.642 5.448 5.448 0 00-3.78-1.465z" fill="#FCE4D4"/><path d="M57.339 72.623a3.769 3.769 0 01-2.596-1.073 3.769 3.769 0 01-2.596 1.073h-1.116a7.756 7.756 0 012.466 5.465c.06 2.68-.769 5.306-2.362 7.481h6.983a12.192 12.192 0 01-2.285-7.481 7.71 7.71 0 01.746-2.975 7.825 7.825 0 011.85-2.465l-1.09-.025z" fill="#D7EAFF"/><path d="M33.745 22.497a5.772 5.772 0 00-1.87-1.23 5.845 5.845 0 00-4.412 0 5.778 5.778 0 00-1.87 1.23l-.337.332-.337-.332a5.813 5.813 0 00-4.076-1.661 5.813 5.813 0 00-4.075 1.66 5.624 5.624 0 00-1.688 4.01c0 1.503.607 2.945 1.688 4.009l.338.332 8.072 8.018 8.151-8.018.338-.332a5.666 5.666 0 001.267-1.828 5.589 5.589 0 00.042-4.34 5.663 5.663 0 00-1.231-1.85z" fill="#EFA0A0"/><path d="M33.745 22.497a5.77 5.77 0 00-1.87-1.23 5.845 5.845 0 00-4.411 0c-.7.285-1.335.703-1.87 1.23a5.085 5.085 0 013.44-.382 5.013 5.013 0 012.87 1.902 4.87 4.87 0 01-.521 6.37l-.312.306-7.112 6.946 1.246 1.226 8.15-8.018.338-.332a5.666 5.666 0 001.262-1.832 5.59 5.59 0 00.028-4.34 5.661 5.661 0 00-1.238-1.846z" fill="#CE8282"/><path d="M20.87 27.987c1.691 0 3.063-.938 3.063-2.094 0-1.157-1.372-2.094-3.063-2.094-1.692 0-3.063.938-3.063 2.094s1.371 2.094 3.063 2.094z" fill="#EFBDBD"/><path d="M87.191 38.584a4.575 4.575 0 00-1.482-.975 4.634 4.634 0 00-3.499 0 4.575 4.575 0 00-1.482.975 4.03 4.03 0 012.731-.311c.92.22 1.729.754 2.283 1.508a3.86 3.86 0 01-.42 5.06l-5.814 5.745.986.97 6.464-6.358.285-.281a4.456 4.456 0 001.3-3.177 4.458 4.458 0 00-1.352-3.156z" fill="#D1A3C4"/><path d="M77.614 42.95c1.347 0 2.44-.742 2.44-1.66 0-.916-1.093-1.659-2.44-1.659-1.348 0-2.44.743-2.44 1.66 0 .917 1.092 1.66 2.44 1.66z" fill="#F4D3E9"/><path d="M57.107 1.277h-1.428v.638a8.589 8.589 0 013.87 3.125 8.38 8.38 0 011.452 4.715 10.104 10.104 0 01-2.076 6.289 10.39 10.39 0 01-5.556 3.72c1.487.333 3.03.333 4.517 0a10.395 10.395 0 005.674-3.712 10.104 10.104 0 002.113-6.374 8.436 8.436 0 00-2.54-5.92 8.716 8.716 0 00-6.026-2.481z" fill="#D8C571"/><path d="M45.686 31.102a1.292 1.292 0 01-.467 0 1.288 1.288 0 01-.702-.672 1.257 1.257 0 01-.025-.962 4.39 4.39 0 011.719-1.913 4.495 4.495 0 012.512-.64 4.39 4.39 0 012.493.636 4.285 4.285 0 011.686 1.917 1.26 1.26 0 01-.333 1.384 1.305 1.305 0 01-.934.343 1.318 1.318 0 01-.906-.408 1.277 1.277 0 01-.267-.425 1.777 1.777 0 00-.74-.725 1.817 1.817 0 00-1.025-.195 1.867 1.867 0 00-1.07.233 1.825 1.825 0 00-.747.789 1.315 1.315 0 01-.507.481c-.21.113-.448.167-.687.157zm12.381.026a1.316 1.316 0 01-.608-.144 1.291 1.291 0 01-.469-.407 1.265 1.265 0 01-.143-1.186 4.39 4.39 0 011.719-1.913 4.495 4.495 0 012.512-.64 4.39 4.39 0 012.493.637 4.286 4.286 0 011.686 1.916c.12.319.108.67-.036.98a1.294 1.294 0 01-.73.667 1.322 1.322 0 01-.995-.035 1.29 1.29 0 01-.679-.718 1.777 1.777 0 00-.74-.724 1.816 1.816 0 00-1.025-.195 1.868 1.868 0 00-1.05.229 1.826 1.826 0 00-.741.767 1.283 1.283 0 01-.48.558c-.213.136-.46.208-.714.208zm-3.217 8.248a4.889 4.889 0 01-2.776-.719 4.773 4.773 0 01-1.871-2.141 1.265 1.265 0 01.333-1.385 1.322 1.322 0 011.84.066c.117.123.207.267.267.425.209.389.53.708.922.917.393.209.84.298 1.284.258.465.026.928-.084 1.33-.316a2.34 2.34 0 00.929-.986 1.274 1.274 0 01.693-.702 1.317 1.317 0 01.994-.014c.319.12.576.36.717.666.141.306.154.654.036.969a4.846 4.846 0 01-1.88 2.202 4.961 4.961 0 01-2.819.76z" fill="#4C5760"/><path d="M47.243 71.78a6.812 6.812 0 00-1.402 0 6.634 6.634 0 013.2 2.86 6.471 6.471 0 01.745 4.188c-.882 5.413-2.465 8.452-7.216 9.525.26.204-3.14.255-2.777.332a11.515 11.515 0 008.442-2.01 11.16 11.16 0 004.537-7.285 6.484 6.484 0 00-.075-2.582 6.534 6.534 0 00-1.079-2.356 6.654 6.654 0 00-1.916-1.766 6.765 6.765 0 00-2.46-.906z" fill="#E5CEC1"/><path d="M42.026 80.462a6.492 6.492 0 01.429-2.537 6.572 6.572 0 011.384-2.182 6.696 6.696 0 012.128-1.494 6.79 6.79 0 012.548-.58 6.748 6.748 0 012.18.333 6.687 6.687 0 00-3.468-2.13 6.775 6.775 0 00-4.08.26 6.648 6.648 0 00-3.159 2.554 6.482 6.482 0 00-1.051 3.886l.285 9.193a1.966 1.966 0 00.63 1.394 2.028 2.028 0 001.447.547h.908l-.181-9.244z" fill="#FCEFE8"/><path d="M65.205 71.857a5.718 5.718 0 012.07 2.005c.504.832.783 1.776.811 2.744l-.285 9.193a1.965 1.965 0 01-.63 1.394 2.03 2.03 0 01-1.447.547 21.068 21.068 0 01-4.802-.92 11.366 11.366 0 007.216 2.886 2.054 2.054 0 001.447-.547 1.993 1.993 0 00.63-1.394l.285-9.192a6.517 6.517 0 00-1.4-4.31 6.712 6.712 0 00-3.895-2.406z" fill="#E5CEC1"/><path d="M65.025 72.546c.45.048.894.142 1.324.281a6.45 6.45 0 00-3.703 1.849 6.265 6.265 0 00-1.774 3.692 10.615 10.615 0 001.779 7.123 10.918 10.918 0 006.008 4.343 1.922 1.922 0 01-.987.178 11.056 11.056 0 01-4.065-1.267 10.887 10.887 0 01-3.263-2.702 10.69 10.69 0 01-1.963-3.724 10.582 10.582 0 01-.365-4.18 6.305 6.305 0 012.342-4.207 6.51 6.51 0 014.667-1.386z" fill="#FCEFE8"/><path d="M96.043 28.089H75.277v-1.2a19.853 19.853 0 00-2.147-9.18 20.207 20.207 0 00-6.16-7.214v-.69a9.699 9.699 0 00-2.874-6.904A10.024 10.024 0 0057.106 0H55.68c-.344 0-.674.135-.918.374-.243.24-.38.564-.38.903a7.2 7.2 0 01-.597 2.809 7.433 7.433 0 00-1.869-.256 7.584 7.584 0 00-4.509 1.471 7.38 7.38 0 00-2.707 3.84H8.644a8.642 8.642 0 00-6.053 2.387A8.362 8.362 0 000 17.415v21.476c0 1.948.783 3.817 2.179 5.2a7.564 7.564 0 005.27 2.18c.294-.001.578.098.806.28l4.1 6.793.182.255a3.717 3.717 0 002.596 1.052c.973 0 1.906-.378 2.596-1.052l4.361-7.022c.222-.171.497-.262.779-.256h11.94l-2.284 3.805a12.002 12.002 0 00-1.686 6.427c.055 2.255.746 4.45 1.997 6.34a7.002 7.002 0 00-4.1 1.456l-1.195.945a6.9 6.9 0 00-1.767 2.042 6.762 6.762 0 00-.618 5.224c.251.868.673 1.68 1.243 2.387l11.214 13.968a4.963 4.963 0 002.592 1.71 5.035 5.035 0 003.118-.153 12.658 12.658 0 005.997-2.732c.846.228 1.718.349 2.595.357h5.633a7.906 7.906 0 002.596-.357 12.674 12.674 0 006.23 2.962 5.08 5.08 0 003.071.114 5.016 5.016 0 002.562-1.672l11.317-13.891a6.791 6.791 0 001.486-5.048 6.84 6.84 0 00-2.576-4.604l-1.194-.945a6.974 6.974 0 00-4.076-1.481 12.201 12.201 0 001.74-4.06h5.191a.78.78 0 01.467.153l3.375 5.567.182.255c.301.297.66.533 1.053.694a3.292 3.292 0 003.541-.694l3.582-5.771a.814.814 0 01.493-.153 6.477 6.477 0 002.446-.469 6.39 6.39 0 002.077-1.353 6.266 6.266 0 001.393-2.033c.324-.76.493-1.577.496-2.401V35.239a7.085 7.085 0 00-2.018-4.95 7.32 7.32 0 00-4.939-2.2zM51.915 6.384c.699 0 1.39.148 2.025.434a1.314 1.314 0 001.661-.536A10.103 10.103 0 0056.9 2.554h.208c.965.003 1.92.193 2.81.56.889.366 1.697.9 2.377 1.574a7.219 7.219 0 011.584 2.35c.366.878.552 1.819.549 2.768a8.791 8.791 0 01-1.858 5.586 9.046 9.046 0 01-4.995 3.223 8.958 8.958 0 01-5.68-.654 8.759 8.759 0 01-4.08-3.942 4.786 4.786 0 01-.321-5.05 4.887 4.887 0 011.841-1.905 4.995 4.995 0 012.581-.68zm-7.45 6.077a6.88 6.88 0 001.143 2.86 11.181 11.181 0 004.157 4.417 11.432 11.432 0 005.888 1.635c.872.01 1.743-.076 2.596-.255a11.404 11.404 0 005.216-2.726 11.133 11.133 0 003.116-4.935 17.582 17.582 0 015.775 9.127c.912 3.56.67 7.31-.69 10.728a17.682 17.682 0 01-6.9 8.338 18.133 18.133 0 01-10.538 2.841A18.092 18.092 0 0143.97 40.78a17.614 17.614 0 01-6.154-8.883 17.347 17.347 0 01.237-10.748 17.648 17.648 0 016.541-8.611l-.13-.077zm30.812 39.146a9.517 9.517 0 011.115 6.53 9.623 9.623 0 01-3.425 5.702l-3.868 3.166a5.81 5.81 0 00-1.434-2.89 5.959 5.959 0 00-2.77-1.706l2.803-2.069a5.276 5.276 0 002.087-3.276 5.215 5.215 0 00-.738-3.797l-2.595-4.137a3.066 3.066 0 01-.166-3.742c.257-.37.593-.68.983-.91a3.203 3.203 0 012.624-.285c.433.142.83.373 1.163.678.333.306.595.678.769 1.093l3.452 5.643zm0-12.13a3.298 3.298 0 012.31-.94 3.3 3.3 0 012.31.94l.286.282a1.362 1.362 0 001.843 0l.26-.256c.298-.321.659-.58 1.061-.76a3.317 3.317 0 013.669.653c.313.307.558.674.723 1.078a3.17 3.17 0 01-.06 2.53 3.221 3.221 0 01-.773 1.045l-5.814 5.745-5.4-5.311-.155-.179-.26-.255c-.307-.3-.55-.655-.716-1.048a3.173 3.173 0 01.716-3.523zm-25.1 22.65H49.06l-5.192-3.88a2.752 2.752 0 01-1.067-1.71 2.721 2.721 0 01.392-1.968l2.596-4.137a5.49 5.49 0 00.312-5.465 20.579 20.579 0 009.015 1.979c3.12-.031 6.19-.77 8.974-2.157a5.565 5.565 0 00-.52 1.251 5.58 5.58 0 00.675 4.47l2.596 4.136a2.72 2.72 0 01.38 1.973 2.753 2.753 0 01-1.08 1.704l-5.192 3.856h-1.246a6.022 6.022 0 00-2.732.696 5.912 5.912 0 00-2.096 1.857 5.908 5.908 0 00-2.055-1.868 6.019 6.019 0 00-2.696-.736h.052zm3.322 5.874v.945a1.14 1.14 0 01-.351.796 1.18 1.18 0 01-.817.327h-7.788c-.31 0-.607-.12-.826-.336a1.14 1.14 0 01-.342-.813v-.945c-.003-.434.08-.865.248-1.268a3.29 3.29 0 01.724-1.077 3.354 3.354 0 011.09-.721 3.398 3.398 0 011.287-.253h3.452c.88.02 1.715.38 2.327 1a3.27 3.27 0 01.944 2.32l.052.025zm2.959 0c0-.856.338-1.68.944-2.294a3.374 3.374 0 012.3-1h3.453a3.393 3.393 0 012.377.973c.311.31.557.675.724 1.078.167.403.251.834.248 1.269v.919a1.14 1.14 0 01-.352.796c-.218.21-.511.327-.817.327h-7.787a1.177 1.177 0 01-.81-.345 1.14 1.14 0 01-.332-.804l.052-.92zM22.895 43.768a3.82 3.82 0 00-2.596 1.098l-4.465 7.022a1.102 1.102 0 01-1.324 0l-4.127-6.792-.182-.256a3.846 3.846 0 00-1.248-.83 3.895 3.895 0 00-1.477-.293 4.95 4.95 0 01-1.874-.368 4.885 4.885 0 01-1.586-1.047 4.795 4.795 0 01-1.056-1.566 4.733 4.733 0 01-.364-1.845V17.415a5.826 5.826 0 011.758-4.136 6.02 6.02 0 014.212-1.711h32.68a20.17 20.17 0 00-6.307 10.214l-.312-.358a7.114 7.114 0 00-4.594-2.033 7.14 7.14 0 00-4.802 1.497 7.147 7.147 0 00-9.383.936 6.884 6.884 0 00-1.839 4.627 6.88 6.88 0 001.773 4.651l.156.153.156.205 8.124 8.043c.19.19.435.315.701.358h.26c.342-.005.669-.143.909-.383l8.176-7.993.156-.204.156-.153.207-.23a20.159 20.159 0 006.36 10.648 5.792 5.792 0 00-2.6.484 5.7 5.7 0 00-2.098 1.585l-13.55.153zm11.24-17.339a4.305 4.305 0 01-.35 1.675 4.365 4.365 0 01-.974 1.415l-.338.332-.156.179L25.231 37l-7.06-6.97-.156-.205-.338-.331a4.393 4.393 0 01-.966-1.429 4.335 4.335 0 01-.336-1.683 4.36 4.36 0 011.315-3.106 4.507 4.507 0 013.163-1.282 4.507 4.507 0 013.158 1.294l.337.332c.24.24.567.378.909.383.342-.005.669-.142.908-.383l.338-.332a4.489 4.489 0 012.291-1.19 4.533 4.533 0 012.578.262 4.45 4.45 0 011.995 1.626c.487.725.745 1.575.741 2.443h.026zm.648 25.025l3.375-5.643a3.12 3.12 0 01.822-.957 3.216 3.216 0 013.609-.21c.366.219.683.51.93.854a3.064 3.064 0 01.037 3.556l-2.595 4.136a5.215 5.215 0 00-.761 3.787 5.275 5.275 0 002.06 3.287l2.803 2.094c-1.08.302-2.05.9-2.799 1.722a5.81 5.81 0 00-1.433 2.925l-3.893-3.166a9.619 9.619 0 01-3.396-5.789 9.52 9.52 0 011.241-6.57v-.026zm3.011 33.63l-9.24-11.593a4.265 4.265 0 01.726-6.052l1.194-.945a4.407 4.407 0 012.726-.919h.545c.573.064 1.127.24 1.63.516a4.32 4.32 0 011.303 1.093l4.024 5.107a7.859 7.859 0 00-2.217 2.79 7.732 7.732 0 00-.743 3.466l.052 6.537zm3.4 3.192a.722.722 0 01-.752-.69l-.234-9.192a5.263 5.263 0 011.462-3.767 5.439 5.439 0 013.73-1.672h.156a5.446 5.446 0 013.73 1.491 5.273 5.273 0 011.643 3.616 9.762 9.762 0 01-.636 3.817 9.885 9.885 0 01-2.074 3.287 10.07 10.07 0 01-3.195 2.256 10.21 10.21 0 01-3.83.88v-.026zm10.721-2.732h-.778a12.195 12.195 0 002.362-7.482 7.756 7.756 0 00-2.466-5.465h1.116a3.769 3.769 0 002.596-1.072 3.769 3.769 0 002.596 1.072h.882a7.823 7.823 0 00-1.85 2.465 7.709 7.709 0 00-.746 2.974 12.192 12.192 0 002.284 7.482h-5.996v.026zm17.003 2.145a.63.63 0 01-.204.527.651.651 0 01-.55.162 10.145 10.145 0 01-7.014-3.126 9.817 9.817 0 01-2.72-7.088 5.214 5.214 0 01.48-2.02 5.29 5.29 0 011.234-1.683 5.202 5.202 0 011.783-1.11 5.269 5.269 0 012.085-.32 5.438 5.438 0 013.748 1.69 5.262 5.262 0 011.443 3.8l-.285 9.168zM79.3 66.648l1.194.944c.45.355.826.794 1.104 1.292a4.266 4.266 0 01.365 3.29 4.292 4.292 0 01-.794 1.496l-9.657 11.848.234-6.92a7.704 7.704 0 00-.675-3.4 7.826 7.826 0 00-2.103-2.78l4.154-5.107a4.37 4.37 0 011.313-1.086 4.438 4.438 0 013.344-.359 4.42 4.42 0 011.52.781zm21.13-13.738c0 .491-.099.978-.291 1.432a3.72 3.72 0 01-.828 1.213 3.816 3.816 0 01-2.697 1.083 3.451 3.451 0 00-1.305.248 3.403 3.403 0 00-1.109.722l-3.348 5.771a.682.682 0 01-.753 0l-3.374-5.567-.182-.255a3.43 3.43 0 00-2.388-.97h-5.062a11.926 11.926 0 00-1.661-6.257l-.701-1.2 3.4 3.345c.19.19.435.315.701.358h.26A1.31 1.31 0 0082 52.45l6.723-6.64a5.728 5.728 0 001.724-3.875 5.713 5.713 0 00-1.426-3.99 5.937 5.937 0 00-7.955-.842 5.918 5.918 0 00-6.46-.36 5.784 5.784 0 00-2.296 2.44 5.663 5.663 0 00-.537 3.282 5.818 5.818 0 00-3.323-.612 20.127 20.127 0 006.568-11.21h21.025a4.712 4.712 0 013.287 1.355 4.56 4.56 0 011.36 3.24l-.26 17.672z" fill="#4C5760"/><path d="M54.823 44.38c4.73-.02 9.261-1.877 12.606-5.167a17.502 17.502 0 005.253-12.4 17.116 17.116 0 00-3.089-9.832 18.415 18.415 0 011.376 3.907 18.574 18.574 0 01-.317 9 18.795 18.795 0 01-4.521 7.83 19.22 19.22 0 01-7.694 4.877 19.484 19.484 0 01-9.117.815c1.772.606 3.629.933 5.503.97zm8.565 3.908a5.29 5.29 0 01.675-3.473 20.57 20.57 0 01-8.973 2.157 20.58 20.58 0 01-9.016-1.978c.089.2.167.404.234.612a19.124 19.124 0 008.227 3.303 19.24 19.24 0 008.853-.749v.128z" fill="#E5CEC1"/><path d="M90.852 63.379l3.582-5.771a3.422 3.422 0 012.414-.97 3.834 3.834 0 002.697-1.083c.355-.347.636-.759.828-1.213.192-.454.291-.94.291-1.432V35.239c0-1.21-.485-2.372-1.35-3.232a4.71 4.71 0 00-3.27-1.364h-.26a5.873 5.873 0 011.775 2.066c.42.816.638 1.718.64 2.632v17.67c0 2.758.83 3.524-1.974 3.524a5.685 5.685 0 00-2.566.554 5.587 5.587 0 00-2.028 1.643l-2.233 3.677.65 1.072a.684.684 0 00.804-.102z" fill="#AED9FF"/><path d="M5.866 20.607a5.588 5.588 0 01.432-2.177 5.662 5.662 0 011.247-1.848 5.77 5.77 0 011.873-1.235 5.845 5.845 0 012.211-.434h26.762a20.548 20.548 0 012.908-3.218H8.618a6.023 6.023 0 00-4.2 1.648 5.83 5.83 0 00-1.822 4.072v21.476c-.004.632.12 1.26.364 1.845a4.796 4.796 0 001.056 1.566c.453.448.993.804 1.586 1.047a4.95 4.95 0 001.874.368h.13a16.503 16.503 0 01-1.74-7.329v-15.78z" fill="#CEC9F4"/><path d="M52.225 13.06c1.381-.324 2.234-1.687 1.905-3.045-.329-1.359-1.714-2.198-3.095-1.874-1.38.323-2.233 1.686-1.905 3.044.329 1.359 1.715 2.198 3.095 1.874z" fill="#F7EECB"/><path d="M45.581 37.154c1.85 0 3.348-.88 3.348-1.966 0-1.086-1.499-1.966-3.348-1.966-1.85 0-3.349.88-3.349 1.966 0 1.086 1.5 1.966 3.349 1.966zm18.586 0c1.85 0 3.348-.88 3.348-1.966 0-1.086-1.499-1.966-3.348-1.966-1.85 0-3.349.88-3.349 1.966 0 1.086 1.5 1.966 3.349 1.966z" fill="#EFCBC5"/><path d="M33.174 69.686c1.333 0 2.414-.629 2.414-1.404 0-.776-1.08-1.405-2.414-1.405-1.333 0-2.414.629-2.414 1.405 0 .775 1.08 1.404 2.414 1.404zm44.439 0c1.334 0 2.414-.629 2.414-1.404 0-.776-1.08-1.405-2.414-1.405-1.333 0-2.414.629-2.414 1.405 0 .775 1.081 1.404 2.414 1.404z" fill="#FFF5F0"/></svg>