<svg width="85" height="78" fill="none" xmlns="http://www.w3.org/2000/svg"><path d="M61.47 29.787H23.752a7.377 7.377 0 01-2.193 5.14 7.347 7.347 0 01-5.162 2.12H2.766v5.181h.166a33.339 33.339 0 0123.54 9.54A33.478 33.478 0 0136.5 75.147h12.222a33.478 33.478 0 019.94-23.317A33.34 33.34 0 0182.07 42.2h.165v-5.153h-13.41a7.347 7.347 0 01-5.163-2.12 7.377 7.377 0 01-2.193-5.14zm-9.762 20.477l-.166.166-.165.194-7.77 7.786c-.256.261-.604.41-.968.416h-.36c-.25-.055-.48-.18-.663-.36l-7.77-7.787-.166-.194-.139-.138a6.906 6.906 0 01-.262-9.395 6.875 6.875 0 019.332-.94 7.04 7.04 0 019.07.581 6.907 6.907 0 01.027 9.67z" fill="#D7EAFF"/><path d="M43.939 42.477l-.332.333c-.255.261-.603.41-.968.416a1.381 1.381 0 01-.967-.416l-.332-.333a4.115 4.115 0 00-5.577.231 4.132 4.132 0 00-.23 5.588l.332.333.166.194 6.636 6.65 6.636-6.65.166-.194.332-.333a4.133 4.133 0 000-5.819 4.199 4.199 0 00-5.862 0z" fill="#F7BCE1"/><path d="M51.516 74.952a34.95 34.95 0 0020.297-9.805A35.077 35.077 0 0081.932 44.97a30.577 30.577 0 00-21.28 8.806 30.704 30.704 0 00-9.136 21.175zM3.236 44.971a35.078 35.078 0 0010.119 20.176 34.95 34.95 0 0020.298 9.805 30.704 30.704 0 00-9.137-21.175 30.577 30.577 0 00-21.28-8.806z" fill="#AED9FF"/><path d="M21.015 29.676v-1.58c0-1.22-.483-2.39-1.344-3.252a4.586 4.586 0 00-3.246-1.347H2.765v10.779h13.66a4.586 4.586 0 003.246-1.348 4.604 4.604 0 001.345-3.252zM76.456 2.77H8.766A5.879 5.879 0 004.53 4.46a5.903 5.903 0 00-1.764 4.213V13.3h79.58V8.673A5.914 5.914 0 0080.621 4.5a5.89 5.89 0 00-4.165-1.73zm5.89 31.506v-10.78H68.824a4.585 4.585 0 00-3.245 1.348 4.604 4.604 0 00-1.345 3.253v1.579c0 1.22.484 2.39 1.345 3.252a4.585 4.585 0 003.246 1.348h13.521z" fill="#D7EAFF"/><path d="M2.766 20.726h13.66a7.346 7.346 0 014.785 1.8 7.374 7.374 0 012.459 4.49h37.91a7.374 7.374 0 012.46-4.49 7.346 7.346 0 014.784-1.8h13.522v-4.655H2.766v4.655z" fill="#D7EAFF"/><path d="M62.714 29.842H22.26v2.771h40.454v-2.77z" fill="#AED9FF"/><path d="M49.94 41.563a5.524 5.524 0 00-7.77 0 4.775 4.775 0 015.972 1.495 4.801 4.801 0 01-.443 6.153l-.276.277-6.775 6.788 1.19 1.192 7.77-7.786.331-.333a5.547 5.547 0 000-7.786z" fill="#D1A3C4"/><path d="M38.38 46.828c1.619 0 2.931-.906 2.931-2.023s-1.312-2.023-2.93-2.023c-1.62 0-2.932.906-2.932 2.023s1.313 2.023 2.931 2.023z" fill="#F4D3E9"/><path d="M69.404 32.918a1.381 1.381 0 01-1.382-1.386V26.24a1.387 1.387 0 011.382-1.385 1.381 1.381 0 011.383 1.385v5.292a1.387 1.387 0 01-1.383 1.386z" fill="#4C5760"/><path d="M82.069 42.2v-5.18h-6.222a41.328 41.328 0 01-.663 5.846 33.285 33.285 0 016.691-.692l.194.027zm.111-18.73h-6.22v10.778h6.221V23.469zm0-7.454h-6.22v4.683h6.221v-4.683zm-6.221-6.429v3.658h6.221v-4.6a5.911 5.911 0 00-1.744-4.165 5.889 5.889 0 00-4.173-1.71h-3.982a8.326 8.326 0 013.678 6.816z" fill="#AED9FF"/><path d="M8.987 23.497H2.766v10.779h6.221v-10.78zm0-7.426H2.766v4.683h6.221V16.07zM2.766 40.205v2.05h.276c2.248.005 4.49.237 6.692.694a41.285 41.285 0 01-.664-5.847H2.766v3.103z" fill="#F3F9FF"/><path d="M51.404 74.952a34.533 34.533 0 004.59-.886c2.987-20.228 17.42-26.407 23.587-28.956a30.585 30.585 0 00-19.81 9.496 30.706 30.706 0 00-8.367 20.346zM20.711 70.74a36.544 36.544 0 01-7.88-6.456c-5.53-5.985 0-14.02 7.05-9.56a29.305 29.305 0 0113.467 17.014 30.693 30.693 0 00-10.09-19.077 30.574 30.574 0 00-20.133-7.69 35.094 35.094 0 005.772 14.955A35.005 35.005 0 0020.711 70.74z" fill="#86BBE2"/><path d="M15.623 32.918a1.381 1.381 0 01-1.383-1.386V26.24a1.387 1.387 0 011.383-1.385 1.381 1.381 0 011.382 1.385v5.292a1.387 1.387 0 01-1.382 1.386z" fill="#4C5760"/><path d="M8.877 9.615a4.215 4.215 0 011.318-2.928 4.198 4.198 0 012.995-1.145h61.635a8.306 8.306 0 00-2.516-2.771H8.71A5.88 5.88 0 004.5 4.489 5.903 5.903 0 002.765 8.7v4.545h6.11v-3.63z" fill="#F3F9FF"/><path d="M42.5 39.956a6.875 6.875 0 00-9.332.94 6.908 6.908 0 00.262 9.395l.139.139.166.194 7.742 7.786c.183.18.413.306.664.36h.36c.364-.005.712-.154.967-.415l7.77-7.787.166-.194.166-.166a6.907 6.907 0 000-9.753 7.044 7.044 0 00-9.07-.499zm7.134 8.313l-.332.332-.166.194-6.636 6.622-6.553-6.594-.166-.194-.332-.333a4.134 4.134 0 01.23-5.588 4.116 4.116 0 015.577-.23l.332.332c.255.261.603.41.967.416.365-.006.713-.155.968-.416l.332-.333a4.198 4.198 0 015.807 0 4.129 4.129 0 01.874 4.51c-.21.501-.516.955-.902 1.337v-.055z" fill="#4C5760"/><path d="M76.345 0H8.655a8.673 8.673 0 00-6.112 2.548A8.71 8.71 0 000 8.673v31.532a37.89 37.89 0 0011.063 26.709A37.732 37.732 0 0037.716 78h9.568a37.732 37.732 0 0026.653-11.086A37.89 37.89 0 0085 40.205V8.673a8.71 8.71 0 00-2.543-6.125A8.673 8.673 0 0076.345 0zM2.765 23.497h13.522a4.583 4.583 0 014.24 2.84c.231.558.35 1.156.35 1.76v1.579a4.607 4.607 0 01-1.345 3.253 4.588 4.588 0 01-3.245 1.347H2.765V23.497zm.36 21.474a30.578 30.578 0 0121.28 8.806 30.704 30.704 0 019.136 21.175 34.949 34.949 0 01-20.298-9.805A35.078 35.078 0 013.125 44.97zm48.279 29.981a30.704 30.704 0 019.137-21.175 30.578 30.578 0 0121.28-8.806A35.078 35.078 0 0171.7 65.147a34.949 34.949 0 01-20.297 9.805zm30.83-34.747v2.05h-.165a33.34 33.34 0 00-23.46 9.57 33.478 33.478 0 00-9.998 23.321H36.389a33.478 33.478 0 00-9.94-23.317A33.34 33.34 0 003.042 42.2h-.277v-5.153h13.522a7.347 7.347 0 005.162-2.12 7.377 7.377 0 002.193-5.14h37.716a7.377 7.377 0 002.193 5.14 7.347 7.347 0 005.162 2.12h13.522v3.158zM64.097 29.676v-1.58c0-1.22.483-2.39 1.344-3.252a4.585 4.585 0 013.246-1.347h13.521v10.779H68.713a4.585 4.585 0 01-3.245-1.348 4.605 4.605 0 01-1.345-3.252h-.027zm18.139-8.95H68.713a7.346 7.346 0 00-4.785 1.8 7.375 7.375 0 00-2.46 4.49h-37.91a7.375 7.375 0 00-2.469-4.499 7.346 7.346 0 00-4.802-1.79H2.765V16.07h79.47v4.655zm0-7.453H2.765v-4.6c0-1.565.62-3.067 1.725-4.173a5.884 5.884 0 014.165-1.73h67.69c1.562 0 3.06.623 4.165 1.73a5.908 5.908 0 011.725 4.173v4.6z" fill="#4C5760"/></svg>