<svg width="95" height="115" fill="none" xmlns="http://www.w3.org/2000/svg"><path d="M34.939 59.887H24.264v53.796h10.675V59.887z" fill="#F2E094"/><path d="M24.042 62.97a11.825 11.825 0 00-2.102-9.079l-2.325-3.446a4.4 4.4 0 00-1.57 2.578 4.624 4.624 0 001.037 4.006l4.96 5.94zm-.813 49.284V91.296H12.946l-.112 20.958h10.395z" fill="#EFA0A0"/><path d="M14.823 80.677a4.231 4.231 0 01-4.231-4.23V66.415a1.4 1.4 0 112.802 0v10.058a1.429 1.429 0 001.429 1.43h8.405v-11.6l-6.416-7.454a7.368 7.368 0 01-1.793-4.482c-4.988.7-11.74 3.53-12.216 11.207v13.757a9.19 9.19 0 009.19 9.19H46.12v-6.444a5.912 5.912 0 00-3.699-1.345l-27.598-.056zm21.181 10.619v20.958h10.283l-.168-20.958H36.004z" fill="#EFA0A0"/><path d="M43.765 56.89a7.399 7.399 0 01-1.205 2.017L36.004 66.5v11.403h6.36a8.63 8.63 0 013.699.84v-2.297l1.457-5.855 4.398-5.604-.364-5.184-6.332-5.744-2.13 1.962c.197.336.42.616.673.868zm-4.342-5.717l-1.99 2.802a11.822 11.822 0 00-2.1 9.078l5.127-5.912a4.595 4.595 0 001.093-2.605c.364.476.812.868 1.204 1.317a5.884 5.884 0 00-3.026-7.061l-.784 1.065c.056.336.28.84.476 1.316z" fill="#EFA0A0"/><path d="M16.224 113.319V89.671l-1.373-.28a10.563 10.563 0 01-9.022-10.423v-13.87c.504-7.704 6.668-11.039 11.936-12.131a.755.755 0 00-.364 0c-5.436 0-15.467 2.802-16.14 12.608v13.73a10.563 10.563 0 009.05 10.366v23.928h13.506v-.336l-7.593.056zm16.67-23.759h-4.511v.335h4.51v-.336z" fill="#CE8282"/><path d="M12.497 65.07a6.948 6.948 0 013.558 6.081l.169 8.013-4.007-1.905.28-12.188z" fill="#CE8282"/><path d="M20.145 44.841a1.4 1.4 0 011.4 1.401v4.595c.169.224 1.766.757 1.766 1.065 0 4.37 2.073 7.649 6.444 7.649 3.446 0 5.155-2.242 6.22-5.604.252-.784 1.71-1.569 1.71-2.381a1.401 1.401 0 011.4-1.401c.785 0 4.427-5.015 4.427-5.015l-23.34-2.242v1.933h-.027z" fill="#FCE4D4"/><path d="M22.023 47.363a14.71 14.71 0 007.593 2.802 17.288 17.288 0 0014.01-7.033L29.98 46.494l-7.958.869z" fill="#E5CEC1"/><path d="M45.277 1.72a11.908 11.908 0 00-7.9.7 8.232 8.232 0 01-5.605.505 12.889 12.889 0 00-10.255 1.317A20.397 20.397 0 0010.31 13.46c-3.138 6.753.364 15.046.364 15.046s8.938-2.662 11.936-9.414c.51-1.115.868-2.293 1.065-3.502a15.689 15.689 0 004.595 1.961c.774.188 1.56.319 2.354.392a24.46 24.46 0 017.733 2.326c.703.32 1.435.572 2.185.756a10.647 10.647 0 0013.253-7.004 10.647 10.647 0 00-8.518-12.3z" fill="#F2E094"/><path d="M12.412 14.02a18.549 18.549 0 000 12.637 18.549 18.549 0 009.554-8.153c.329-.72.582-1.47.757-2.242a8.966 8.966 0 01-4.315-8.405 15.522 15.522 0 00-5.996 6.164zM51.75 7.296a10.816 10.816 0 00-13.14-3.53 9.582 9.582 0 01-6.444.588 14.766 14.766 0 00-3.53-.448c-3.755 0-6.893 1.541-7.482 4.007-.784 3.222 2.802 7.005 8.07 8.405.7.173 1.412.294 2.13.365a26.053 26.053 0 018.18 2.465c.632.285 1.289.51 1.962.673a9.246 9.246 0 0011.572-5.94 7.96 7.96 0 00-1.317-6.585z" fill="#F2E094"/><path d="M28.271 46.102c9.33.589 17.288-9.442 17.876-18.464a16.531 16.531 0 00-.476-4.875 13.35 13.35 0 01-1.513 0 14.01 14.01 0 01-5.772-1.261 23.479 23.479 0 00-7.285-2.214 17.737 17.737 0 01-2.55-.448 17.816 17.816 0 01-3.334-1.12 13.84 13.84 0 01-.728 1.905 21.35 21.35 0 01-11.376 9.806c1.177 8.013 7.117 16.139 15.158 16.671z" fill="#FCE4D4"/><path d="M12.357 26.713a18.548 18.548 0 009.61-8.21c.329-.719.582-1.47.757-2.24l-.98-.785c-.178.632-.403 1.25-.673 1.849a18.829 18.829 0 01-9.022 8.405c.084.28.196.645.308.981zM53.04 13.768a7.958 7.958 0 00-1.29-6.472 9.742 9.742 0 00-1.064-1.289 8.07 8.07 0 01.813 5.772 9.415 9.415 0 01-11.74 6.164 11.034 11.034 0 01-1.934-.672 21.662 21.662 0 00-7.004-2.074 14.556 14.556 0 01-2.074-.364A10.926 10.926 0 0121.07 8.95c0 2.97 3.503 6.136 8.154 7.285.7.172 1.412.294 2.13.364 2.843.367 5.608 1.2 8.18 2.466.632.285 1.288.51 1.962.672a9.247 9.247 0 0011.544-5.968z" fill="#D8C571"/><path d="M44.13 22.847a14.01 14.01 0 01-5.772-1.261 23.481 23.481 0 00-7.285-2.214 17.724 17.724 0 01-2.55-.448 17.814 17.814 0 01-3.306-1.205c0 .364-.28.757-.42 1.121a16.055 16.055 0 003.782 1.457c.774.188 1.561.319 2.354.392a24.46 24.46 0 017.733 2.326 12.272 12.272 0 007.173.925c0-.42 0-.841-.224-1.233a13.36 13.36 0 01-1.485.14z" fill="#E5CEC1"/><path d="M26.142 31.252a1.401 1.401 0 01-1.373-1.065 2.046 2.046 0 00-1.878-1.317 2.158 2.158 0 00-2.213.953 1.429 1.429 0 01-1.905.532 1.4 1.4 0 01-.589-1.877 4.875 4.875 0 015.015-2.41 4.818 4.818 0 014.26 3.447 1.401 1.401 0 01-1.037 1.681l-.28.056zm3.866 10.003h-.812a5.352 5.352 0 01-4.736-3.81 1.438 1.438 0 012.802-.645 2.605 2.605 0 002.354 1.68 2.803 2.803 0 002.802-1.204 1.429 1.429 0 011.905-.56 1.401 1.401 0 01.588 1.877 5.436 5.436 0 01-4.903 2.662z" fill="#4C5760"/><path d="M44.13 11.415c2.924 0 5.295-1.154 5.295-2.578 0-1.423-2.37-2.577-5.295-2.577s-5.296 1.154-5.296 2.577c0 1.424 2.37 2.578 5.295 2.578z" fill="#F7EECB"/><path d="M39.954 32.933a1.4 1.4 0 01-1.373-1.064 2.045 2.045 0 00-1.878-1.317 2.157 2.157 0 00-2.213.952 1.401 1.401 0 01-1.905.533 1.401 1.401 0 01-.56-1.878 4.96 4.96 0 015.015-2.41 4.82 4.82 0 014.258 3.447 1.4 1.4 0 01-1.036 1.681l-.308.056z" fill="#4C5760"/><path d="M69.686 30.19c.286-1.205-1.495-2.66-3.979-3.251-2.483-.592-4.73-.095-5.016 1.11-.287 1.204 1.494 2.66 3.978 3.25 2.484.592 4.73.095 5.017-1.11z" fill="#F7EECB"/><path d="M46.764 91.1v22.555h45.11s2.802-35.556-18.437-32.754c7.734-5.38 1.065-12.3-3.194-14.177-2.802-1.261-6.92-2.326-6.584-6.529L52.452 61.99l-.56 4.623-4.624 5.94-.504 18.548z" fill="#B2A6E8"/><path d="M90.808 39.742c-6.921 0-12.357-5.043-16.055-11.207a20.23 20.23 0 00-17.764-8.91A20.594 20.594 0 0036.928 39.63v1.205a20.734 20.734 0 0019.108 21.238 20.43 20.43 0 002.298 0h12.44a21.91 21.91 0 0021.322-22.415h-1.148l-.14.084z" fill="#F2E094"/><path d="M70.719 57.814H58.306c-.756.04-1.513.04-2.27 0a20.033 20.033 0 01-18.8-17.512v2.213a20.033 20.033 0 0018.8 19.894c.757.04 1.514.04 2.27 0H70.72c11.74 0 20.874-10.62 20.874-22.415-3.615 6.724-8.518 18.576-20.874 17.82z" fill="#D8C571"/><path d="M70.662 41.283c-6.388 0-11.796-5.604-13.701-12.02a14.43 14.43 0 00-13.785 14.401c0 7.986 6.472 16.812 14.457 16.812 7.986 0 14.458-8.826 14.458-16.812a14.489 14.489 0 00-.224-2.465l-1.205.084zm1.121 32.165h5.912a4.82 4.82 0 014.82 4.82v3.978H70.55a3.558 3.558 0 01-3.559-3.558v-.392a4.82 4.82 0 014.82-4.82l-.029-.028z" fill="#FCE4D4"/><path d="M80.777 82.246h-5.435c11.516 6.64 9.694 31.241 9.694 31.241h5.436s1.99-24.6-9.695-31.24zm-10.73-8.714c.28-.024.56-.024.84 0h4.567a12.301 12.301 0 00-6.5-6.864c-2.802-1.261-6.92-2.326-6.584-6.529l-5.38.841c.28 3.502 3.923 4.54 6.557 5.604a12.245 12.245 0 016.5 6.948z" fill="#968ECE"/><path d="M76.602 73.448h-3.754a5.016 5.016 0 015.1 5.016v3.558a.196.196 0 01-.197.196h3.67a.197.197 0 00.197-.196v-3.558a5.015 5.015 0 00-5.016-5.016z" fill="#E5CEC1"/><path d="M55.254 96.704h16.81a1.29 1.29 0 00.926-.392 1.345 1.345 0 00.392-.981 4.764 4.764 0 00-4.735-4.623h-11.04a3.755 3.755 0 01-3.754-3.839V79.5c0-.532-1.037-1.345-2.354-1.569a6.612 6.612 0 00-3.642 0v11.236a7.397 7.397 0 007.397 7.537z" fill="#FCE4D4"/><path d="M50.715 88.13l-.42-4.65a18.35 18.35 0 01.868-5.605 6.276 6.276 0 00-3.278.14v11.236a7.397 7.397 0 007.397 7.397h2.297a8.77 8.77 0 01-6.864-8.518z" fill="#E5CEC1"/><path d="M48.249 47.895a1.402 1.402 0 01-1.317-1.905 4.287 4.287 0 014.09-2.606 4.203 4.203 0 014.063 2.55 1.405 1.405 0 01-2.633.98 1.457 1.457 0 00-1.43-.728 1.513 1.513 0 00-1.456.813 1.401 1.401 0 01-1.317.896zm11.402 0a1.401 1.401 0 01-1.317-1.905 4.287 4.287 0 014.09-2.606 4.203 4.203 0 014.064 2.55 1.405 1.405 0 01-2.634.98 1.458 1.458 0 00-1.43-.728 1.513 1.513 0 00-1.456.813 1.4 1.4 0 01-1.317.896zm-2.269 7.734a4.65 4.65 0 01-4.483-2.802 1.404 1.404 0 112.634-.981 1.878 1.878 0 001.849.98 1.934 1.934 0 001.905-1.064 1.405 1.405 0 012.634.98 4.735 4.735 0 01-4.54 2.887z" fill="#4C5760"/><path d="M49.874 52.518c1.192 0 2.158-.514 2.158-1.148 0-.635-.966-1.15-2.158-1.15-1.191 0-2.157.515-2.157 1.15 0 .634.966 1.148 2.157 1.148zm15.83 0c1.192 0 2.158-.514 2.158-1.148 0-.635-.966-1.15-2.158-1.15-1.191 0-2.157.515-2.157 1.15 0 .634.966 1.148 2.157 1.148z" fill="#EFCBC5"/><path d="M62.426 60.952a12.16 12.16 0 01-8.938.168l.28 4.931a11.46 11.46 0 0011.6-.196 8.574 8.574 0 01-2.942-4.903zM42.45 80.677h-3.895v7.79h7.985a1.85 1.85 0 001.75-1.194c.09-.236.134-.487.127-.74a6.024 6.024 0 00-5.968-5.856z" fill="#FCE4D4"/><path d="M83.888 82.302v-4.035a6.22 6.22 0 00-6.22-6.22h-.28a14.458 14.458 0 00-6.585-6.108 13.814 13.814 0 01-3.922-2.325h4.23a22.92 22.92 0 0022.892-22.892 1.457 1.457 0 00-1.541-1.485 16.81 16.81 0 01-14.682-9.274 22.891 22.891 0 00-23.928-11.88 10.059 10.059 0 001.821-3.726 10.73 10.73 0 00-1.625-8.742 13.617 13.617 0 00-16.643-4.399 6.837 6.837 0 01-4.623.42A14.345 14.345 0 0021.574 3.01a21.574 21.574 0 00-11.711 9.863c-3.363 7.229.196 15.83.364 16.167a24.936 24.936 0 008.882 16.222v2.13a7.116 7.116 0 00-3.643 4.119C9.498 52.126.644 55.488 0 65.519v13.87a11.992 11.992 0 0010.143 11.795V113.6a1.402 1.402 0 001.4 1.401h80.33a1.401 1.401 0 001.401-1.289c.056-.953 1.681-23.76-9.386-31.409zm-6.22-7.453a3.418 3.418 0 013.418 3.418v2.578H70.551a2.157 2.157 0 01-2.157-2.157v-.42a3.419 3.419 0 013.418-3.419h5.856zM75.37 31.336A19.613 19.613 0 0091.173 42.04 20.117 20.117 0 0171.11 60.784h-5.884a7.342 7.342 0 01-.224-1.289 20.09 20.09 0 008.406-15.83c0-.94-.085-1.878-.252-2.802a1.429 1.429 0 00-1.541-1.15h-1.037c-5.94 0-10.731-5.603-12.356-11.01a1.373 1.373 0 00-1.401-1.01A15.83 15.83 0 0041.72 43.497a20.173 20.173 0 007.93 15.439 19.922 19.922 0 01-7.566-5.604 20.257 20.257 0 01-4.175-16.811 20.09 20.09 0 0137.49-5.324l-.029.14zM53.404 61.12a12.16 12.16 0 008.938-.168 8.574 8.574 0 002.801 4.987 11.46 11.46 0 01-11.6.196l-.14-5.015zm4.202 29.588h11.012a4.764 4.764 0 014.735 4.567 1.347 1.347 0 01-.392.98 1.29 1.29 0 01-.925.393H55.225a7.397 7.397 0 01-7.173-5.604 4.65 4.65 0 003.054-4.511 8.74 8.74 0 00-3.25-6.556v-1.878a6.612 6.612 0 013.642 0c1.29.225 2.354 1.037 2.354 1.57v7.2a3.754 3.754 0 003.754 3.839zM38.47 88.466v-7.789h3.894a5.885 5.885 0 012.802.7c.314.161.614.349.897.561.271.212.524.446.756.7a5.857 5.857 0 011.485 3.754c.01.462-.149.91-.448 1.262a1.85 1.85 0 01-1.345.56H38.47v.252zm6.612-11.207v1.008a8.575 8.575 0 00-2.802-.476h-6.276v-11.32l6.556-7.62a5.99 5.99 0 00.449-.645 23.172 23.172 0 007.649 4.203l.168 2.802a13.225 13.225 0 00-5.744 12.104v-.056zM32.67 58.01h-.924a7.93 7.93 0 01-1.626.196 7.678 7.678 0 01-3.474-.84 14.7 14.7 0 00-2.438-5.38l-2.297-3.166v-1.961a15.41 15.41 0 006.164 1.765h.952a15.798 15.798 0 006.725-1.57 22.77 22.77 0 001.008 2.803l-1.597 2.185a14.654 14.654 0 00-2.493 5.968zm.532 7.65v12.215H26.03V66.163a14.737 14.737 0 001.009-5.435c.994.336 2.033.516 3.082.532.754-.005 1.505-.09 2.242-.252.028 1.585.312 3.156.84 4.651zm4.23-11.769l.785-1.092c.525.85 1.105 1.664 1.738 2.437.308.364.644.673.98 1.009-.13.278-.29.54-.476.784l-5.128 5.912a11.824 11.824 0 012.102-9.05zm7.146-10.227a13 13 0 0111.46-12.832c2.24 6.08 7.76 11.908 14.653 11.936v.98a16.98 16.98 0 01-7.649 13.842l-.308.196c-1.55.9-3.307 1.383-5.1 1.4-7.368-.111-13.056-8.377-13.056-15.522zM21.154 7.941c.616-2.466 3.727-4.007 7.481-4.007 1.19.007 2.376.157 3.53.448 2.152.557 4.43.35 6.445-.588a10.815 10.815 0 0113.14 3.502 7.957 7.957 0 011.29 6.473 9.246 9.246 0 01-11.544 5.856 11.047 11.047 0 01-1.962-.673 26.057 26.057 0 00-8.181-2.466c-.718-.07-1.43-.192-2.13-.364-5.183-1.177-8.853-4.903-8.069-8.181zm-8.742 6.08a15.523 15.523 0 015.968-6.276 8.967 8.967 0 004.315 8.405 11.536 11.536 0 01-.756 2.242 18.548 18.548 0 01-9.583 8.321 18.549 18.549 0 01.056-12.692zm.7 15.354a21.35 21.35 0 0011.376-9.75c.29-.617.533-1.254.729-1.906a17.824 17.824 0 005.884 1.653 23.478 23.478 0 017.285 2.214 13.308 13.308 0 004.987 1.205 22.667 22.667 0 00-8.182 13.336 23.48 23.48 0 000 8.406 13.224 13.224 0 01-6.836 1.485c-8.125-.448-14.066-8.574-15.242-16.587v-.056zm4.792 23.648a4.399 4.399 0 011.71-2.578l2.465 3.39a11.826 11.826 0 012.101 9.078l-5.24-5.856a4.623 4.623 0 01-1.036-4.006v-.028zm5.323 59.203H12.832V91.268h10.395v20.958zm9.975 0H26.03v-20.93h7.173v20.93zm2.466-23.76H11.992a9.19 9.19 0 01-9.19-9.19V65.52c.504-7.565 7.229-10.395 12.216-11.207a7.369 7.369 0 001.793 4.539l6.416 7.397V77.82h-8.405a1.429 1.429 0 01-1.43-1.429v-9.974a1.401 1.401 0 00-2.8 0v10.058a4.231 4.231 0 004.23 4.231h20.846v7.761zm.336 2.802h9.302v20.986h-9.302V91.268zm54.524 20.986H48.164V96.592a10.143 10.143 0 007.089 2.802h16.811a4.063 4.063 0 002.802-1.233 4.12 4.12 0 001.289-2.886 7.565 7.565 0 00-7.537-7.37H57.606a.952.952 0 01-.952-.952V73.364a1.401 1.401 0 00-2.802 0v2.298a7.257 7.257 0 00-1.877-.617 12.413 12.413 0 00-3.923 0 9.47 9.47 0 013.642-6.864 13.841 13.841 0 007.566 2.27c3.03 0 5.98-.984 8.405-2.802.672.364 1.345.644 1.905.896a12.273 12.273 0 014.427 3.558H71.7a6.22 6.22 0 00-6.22 6.22v.42a4.987 4.987 0 004.959 4.96h10.199c10.058 4.567 10.086 23.424 9.89 28.579v-.028z" fill="#4C5760"/></svg>