<svg width="105" height="95" fill="none" xmlns="http://www.w3.org/2000/svg"><path d="M81.326 92.48a16.4 16.4 0 0011.55-4.835 16.46 16.46 0 004.79-11.585 35.862 35.862 0 00-2.242-9.557 14.281 14.281 0 01-4.737 8.714 14.232 14.232 0 01-18.574.132 14.28 14.28 0 01-4.86-8.647 35.188 35.188 0 00-2.167 9.358 16.46 16.46 0 004.755 11.55 16.4 16.4 0 0011.485 4.87z" fill="#B2A6E8"/><path d="M70.99 23.707h.249a4.203 4.203 0 002.34-.574 5.125 5.125 0 011.744-.574 10.113 10.113 0 00-2.895-5.833 10.08 10.08 0 00-5.847-2.85 9.944 9.944 0 00-7.578 2.534 9.98 9.98 0 00-3.282 7.297V40.15a10.24 10.24 0 01-2.991 7.21 10.203 10.203 0 01-7.197 2.997h-2.49a8.836 8.836 0 01-5.68-2.72l-4.707-5.166a6.59 6.59 0 01-1.702-4.783 6.6 6.6 0 012.2-4.575 3.818 3.818 0 001.27-2.694 4.198 4.198 0 00-1.096-3.02L16.79 9.458a31.389 31.389 0 00-9.316 19.265 25.222 25.222 0 001.053 10.525A25.188 25.188 0 0013.8 48.41a25.056 25.056 0 008.72 6.045 25.017 25.017 0 0010.435 1.89 1.27 1.27 0 011.27 1.223 1.249 1.249 0 01-1.22 1.273h-.474A28.134 28.134 0 0116.963 54.3a9.47 9.47 0 01-6.326 3.594 26.588 26.588 0 0013.176 10.954 46.9 46.9 0 014.409-5.74 7.997 7.997 0 017.472-2.969 6.223 6.223 0 014.608 4.168 7.499 7.499 0 01-.996 6.238c12.155-1.672 21.52-9.981 22.094-20.462a1.235 1.235 0 010-.274v-.574a1.237 1.237 0 010-.125V37.78a9.245 9.245 0 011.668-5.118 9.218 9.218 0 014.235-3.316 3.474 3.474 0 01-.448-.998 3.526 3.526 0 01.647-3.044 4.285 4.285 0 013.487-1.597z" fill="#EAEAE8"/><path d="M36.342 70.47a5.59 5.59 0 001.644-5.365 3.669 3.669 0 00-2.765-2.495 3.948 3.948 0 00-.822 0 6.07 6.07 0 00-4.359 2.295 37.432 37.432 0 00-6.376 9.333c-1.246 2.645-1.246 4.317-.648 4.766.598.45 2.142.275 4.658-1.172a37.383 37.383 0 008.668-7.362zm-4.534 10.131c.498.45 2.142.275 4.658-1.173a37.38 37.38 0 008.693-7.486l.249-.324a33.995 33.995 0 01-8.295 1.747 43.837 43.837 0 01-5.53 4.99 1.18 1.18 0 010 .325c-.174.848-.099 1.622.225 1.921zM44.836 3.744A31.457 31.457 0 0026.379 16.22l8.643 9.407a6.69 6.69 0 011.744 4.841 6.296 6.296 0 01-1.893 4.517 4.068 4.068 0 00-1.126 4.417c.182.508.463.974.827 1.372l4.583 5.14a6.298 6.298 0 003.91 1.922l-1.569-7.66a6.598 6.598 0 01.954-4.937 6.576 6.576 0 014.152-2.824 4.054 4.054 0 002.602-1.726 4.07 4.07 0 00.612-3.065l-4.982-23.88z" fill="#EAEAE8"/><path d="M82.396 29.67a1.296 1.296 0 00-1.768-.473c-.197.114-.36.277-.474.474-.722 1.472-17.76 36.457-17.76 46.389 0 5.016 1.99 9.827 5.53 13.375a18.863 18.863 0 0013.351 5.54c5.007 0 9.81-1.993 13.35-5.54a18.932 18.932 0 005.53-13.375c0-9.932-17.037-44.917-17.76-46.39zm0 19.115h-.872a1.244 1.244 0 00-1.245 1.248 4 4 0 01-.2 1.223 4.974 4.974 0 00-3.493.664 4.99 4.99 0 00-2.16 2.83 13.086 13.086 0 00-3.239 2.794c2.491-7.486 7.124-17.467 9.963-23.606a254.792 254.792 0 0110.113 23.955 13.236 13.236 0 00-2.49-2.32v-.25a6.544 6.544 0 00-1.805-4.544 6.52 6.52 0 00-4.448-2.019l-.124.025zm4.035 6.538a4.997 4.997 0 01-1.023 3.172 4.98 4.98 0 01-2.788 1.819 4.973 4.973 0 01-5.405-2.62 2.498 2.498 0 011.445-4.1 2.487 2.487 0 011.693.307 1.244 1.244 0 001.595-.524c.378-.65.647-1.359.797-2.096a4.032 4.032 0 012.685 1.26 4.046 4.046 0 011.1 2.757l-.099.025zM74.425 57.82c.13.426.322.83.573 1.197a7.48 7.48 0 006.551 3.993c.544 0 1.087-.06 1.619-.175a7.318 7.318 0 005.256-4.442 10.407 10.407 0 013.263 7.487 10.52 10.52 0 01-1.291 5.066 10.498 10.498 0 01-3.569 3.815 10.474 10.474 0 01-14.11-2.69 10.516 10.516 0 011.808-14.276l-.1.025zm6.75 34.685a16.4 16.4 0 01-11.582-4.816 16.46 16.46 0 01-4.807-11.603 35.864 35.864 0 012.242-9.558 14.282 14.282 0 004.658 9.06 14.232 14.232 0 0019.004 0 14.282 14.282 0 004.658-9.06 35.867 35.867 0 012.242 9.558 16.46 16.46 0 01-4.79 11.56 16.4 16.4 0 01-11.525 4.834l-.1.025z" fill="#4C5760"/><path d="M91.437 57.868a254.78 254.78 0 00-10.112-23.955c-2.865 6.014-7.473 16.245-9.964 23.606a13.084 13.084 0 013.238-2.795 4.99 4.99 0 012.161-2.828 4.974 4.974 0 013.494-.665c.129-.395.196-.808.199-1.223a1.25 1.25 0 011.245-1.248h.872c1.73 0 3.39.69 4.615 1.915a6.544 6.544 0 011.911 4.623v.25c.874.672 1.66 1.452 2.341 2.32zm6.228 18.192a35.237 35.237 0 00-2.167-9.358 14.19 14.19 0 01-2.49 6.388 15.916 15.916 0 01-2.353 7.984 15.879 15.879 0 01-6.057 5.699 15.843 15.843 0 01-16.026-.657c.2.3.399.574.623.848a16.284 16.284 0 008.317 5.04c3.22.793 6.604.583 9.701-.603a16.295 16.295 0 007.632-6.03 16.34 16.34 0 002.845-9.311h-.025z" fill="#968ECE"/><path d="M82.744 51.28a6.894 6.894 0 01-.797 2.097 1.246 1.246 0 01-1.594.524 2.488 2.488 0 00-1.046-.225 2.487 2.487 0 00-2.33 1.338 2.499 2.499 0 00.238 2.68 4.974 4.974 0 005.505 2.67 4.981 4.981 0 002.787-1.82 4.997 4.997 0 001.023-3.17 4.047 4.047 0 00-1.075-2.806 4.032 4.032 0 00-2.71-1.287z" fill="#F2E094"/><path d="M81.2 76.384a10.502 10.502 0 007.408-3.084 10.54 10.54 0 003.078-7.422 10.423 10.423 0 00-3.263-7.486 7.336 7.336 0 01-5.156 4.492 7.684 7.684 0 01-1.619.175 7.463 7.463 0 01-6.55-3.993 4.372 4.372 0 01-.573-1.198 10.499 10.499 0 00-3.218 11.658 10.478 10.478 0 003.847 5.04A10.448 10.448 0 0081.2 76.46v-.075z" fill="#FCE4D4"/><path d="M75.596 69.048a1.244 1.244 0 01-1.246-1.1 1.249 1.249 0 01.075-.597 3.167 3.167 0 013.014-1.947 3.11 3.11 0 012.99 1.897 1.255 1.255 0 01-.736 1.61 1.247 1.247 0 01-1.606-.737.87.87 0 00-1.32 0 1.247 1.247 0 01-1.171.874zm7.572 0a1.244 1.244 0 01-1.245-1.1 1.249 1.249 0 01.075-.597 3.167 3.167 0 013.013-1.947 3.11 3.11 0 012.99 1.897 1.254 1.254 0 01-.735 1.61 1.247 1.247 0 01-1.607-.737.871.871 0 00-1.32 0 1.247 1.247 0 01-1.17.874zM81.2 74.163a3.383 3.383 0 01-3.262-2.07 1.254 1.254 0 01.735-1.61 1.247 1.247 0 011.606.736.971.971 0 00.922.449.995.995 0 00.971-.55 1.272 1.272 0 011.62-.673 1.222 1.222 0 01.697 1.572 3.467 3.467 0 01-3.288 2.146z" fill="#4C5760"/><path d="M79.605 57.342a1.572 1.572 0 00-.727-3.058 1.572 1.572 0 00.727 3.058z" fill="#F7EECB"/><path d="M75.546 72.342c1.128 0 2.043-.548 2.043-1.223s-.915-1.223-2.043-1.223c-1.128 0-2.042.548-2.042 1.223s.914 1.223 2.042 1.223zm11.36 0c1.128 0 2.042-.548 2.042-1.223s-.914-1.223-2.042-1.223c-1.128 0-2.043.548-2.043 1.223s.915 1.223 2.043 1.223z" fill="#EFCBC5"/><path d="M60.676 25.03a1.193 1.193 0 01-.474 0 1.221 1.221 0 01-.697-1.573 3.492 3.492 0 013.313-2.146 3.408 3.408 0 013.288 2.072 1.254 1.254 0 01-.735 1.609 1.247 1.247 0 01-1.607-.736.972.972 0 00-.946-.45 1.019 1.019 0 00-.997.55 1.272 1.272 0 01-1.145.673z" fill="#4C5760"/><path d="M17.063 51.73a8.254 8.254 0 01-3.774 4.064A8.231 8.231 0 013.075 53.65a8.27 8.27 0 01-1.829-5.239H12.68" fill="#777"/><path d="M103.668 25.329c-6.352-.824-21.047-2.296-25.855-2.745a12.636 12.636 0 00-3.559-7.513 12.594 12.594 0 00-7.45-3.666 12.234 12.234 0 00-9.515 3.144 12.475 12.475 0 00-4.06 9.158V40.15c0 2.007-.78 3.935-2.175 5.375a7.69 7.69 0 01-5.297 2.336l-1.67-8.16a4.098 4.098 0 01.592-3.06 4.085 4.085 0 012.572-1.756 6.546 6.546 0 004.14-2.842 6.57 6.57 0 00.916-4.943L47.101 1.997A1.249 1.249 0 0045.632 1 34.119 34.119 0 0024.76 14.45l-6.974-7.486a1.245 1.245 0 00-1.769 0A34.033 34.033 0 004.982 28.448a27.987 27.987 0 004.732 18.79H0v1.173a9.518 9.518 0 002.192 6.044 9.487 9.487 0 005.53 3.264 28.862 28.862 0 0014.695 13.325 20.037 20.037 0 00-1.096 2.196 8.27 8.27 0 00-.846 6.463A14.123 14.123 0 018.02 83.346a1.242 1.242 0 00-1.315.476 1.249 1.249 0 00-.205.447 24.752 24.752 0 01-3.138 6.963 1.25 1.25 0 001.271 1.925 1.247 1.247 0 00.796-.528 27.322 27.322 0 003.163-6.638c2.343.255 4.714.043 6.975-.624-.13.143-.223.314-.274.5a24.577 24.577 0 01-3.114 6.962 1.252 1.252 0 00.336 1.734 1.245 1.245 0 001.732-.337 27.272 27.272 0 003.188-6.663 16.983 16.983 0 0013.65-4.541c.476.186.983.28 1.494.274 1.778-.15 3.49-.74 4.982-1.722a39.87 39.87 0 009.29-7.86 9.785 9.785 0 002.018-3.419 24.19 24.19 0 0010.18-7.81 24.253 24.253 0 004.765-11.928c.024-.14.024-.284 0-.424v-1.048a1.188 1.188 0 000-.2V37.781a6.893 6.893 0 012.08-4.668 6.868 6.868 0 014.72-1.945h.224c2.167 0 9.166-.5 32.555-2.171a1.824 1.824 0 000-3.618l.274-.05zM44.835 3.744l4.981 23.88a4.075 4.075 0 01-1.698 4.2c-.443.3-.94.51-1.465.617a6.575 6.575 0 00-4.152 2.824 6.597 6.597 0 00-.954 4.936l1.57 7.661a6.297 6.297 0 01-3.961-1.946l-4.708-5.166a4.07 4.07 0 01.424-5.764 6.289 6.289 0 002.092-4.417 6.697 6.697 0 00-1.744-4.841l-8.742-9.408A31.458 31.458 0 0144.834 3.744zM2.49 49.784h9.166l.299.374c.926.981 1.925 1.89 2.989 2.72a6.962 6.962 0 01-10.701.524 6.992 6.992 0 01-1.753-3.619zm14.372 35.16a16.487 16.487 0 005.43-3.52c.484.19 1 .284 1.52.275 1.777-.15 3.49-.741 4.98-1.722h.15c.03.473.14.937.324 1.373a14.117 14.117 0 01-12.404 3.593zm10.81-7.113c-2.49 1.448-4.135 1.622-4.658 1.173-.523-.449-.498-2.096.673-4.766a37.431 37.431 0 016.401-9.432 6.08 6.08 0 014.36-2.296c.272-.029.548-.029.821 0a3.658 3.658 0 012.765 2.495 5.6 5.6 0 01-1.644 5.365 37.384 37.384 0 01-8.743 7.461h.025zm17.436-5.764a37.38 37.38 0 01-8.693 7.486c-2.491 1.448-4.16 1.622-4.658 1.173-.498-.45-.398-1.073-.224-2.071a1.199 1.199 0 000-.325 43.845 43.845 0 005.53-4.99 33.99 33.99 0 008.269-1.547l-.224.274zm16.365-34.286v11.354a1.18 1.18 0 000 .124v.574c-.01.092-.01.184 0 .275C60.9 60.514 51.51 68.898 39.38 70.57a7.494 7.494 0 00.996-6.239 6.24 6.24 0 00-4.608-4.167 7.981 7.981 0 00-7.472 2.97 46.9 46.9 0 00-4.409 5.739A26.588 26.588 0 0110.71 57.918a9.452 9.452 0 006.327-3.593 28.134 28.134 0 0015.568 4.542h.473a1.245 1.245 0 001.22-1.273 1.274 1.274 0 00-1.27-1.223 25.03 25.03 0 01-10.478-1.886 25.056 25.056 0 01-8.75-6.074 25.222 25.222 0 01-6.327-19.689 31.39 31.39 0 019.315-19.264L33.278 27.4a4.195 4.195 0 011.095 3.02 3.826 3.826 0 01-1.27 2.694 6.588 6.588 0 00-2.2 4.575 6.599 6.599 0 001.702 4.783l4.757 5.165a8.836 8.836 0 005.68 2.72h2.49a10.203 10.203 0 007.197-2.996 10.24 10.24 0 002.99-7.21V23.707a9.997 9.997 0 013.275-7.287 9.96 9.96 0 017.56-2.545 10.09 10.09 0 015.848 2.85 10.113 10.113 0 012.896 5.834 5.147 5.147 0 00-1.744.574 4.204 4.204 0 01-2.341.574h-.25a4.277 4.277 0 00-3.362 1.572 3.52 3.52 0 00-.623 3.169c.096.354.247.691.449.998a9.219 9.219 0 00-4.223 3.27 9.244 9.244 0 00-1.706 5.065h-.024zm9.365-9.083h-.349a1.468 1.468 0 01-1.12-.949 1 1 0 01.199-.898 1.868 1.868 0 011.444-.624 6.74 6.74 0 003.712-.923 2.71 2.71 0 011.345-.374c.598 0 11.458 1.098 19.926 2.02-10.66.774-22.89 1.648-25.132 1.723l-.025.025z" fill="#4C5760"/><path d="M23.813 68.898c.523-.799 1.12-1.622 1.743-2.495a30.185 30.185 0 01-12.728-5.416 27.077 27.077 0 0010.985 7.91z" fill="#F7F7F7"/><path d="M70.615 28.673h.224c2.242 0 14.472-.949 25.332-1.722-8.544-.948-19.404-1.997-19.927-2.021a2.711 2.711 0 00-1.345.374 6.74 6.74 0 01-3.786.898 1.866 1.866 0 00-1.445.624 1 1 0 00-.199.898 1.472 1.472 0 001.121.949h.025z" fill="#FF754A"/><path d="M37.114 63.807a3.66 3.66 0 00-1.993-1.197 3.947 3.947 0 00-.822 0 6.07 6.07 0 00-4.359 2.295 37.434 37.434 0 00-6.401 9.433c-1.121 2.545-1.121 4.217-.648 4.666a1.69 1.69 0 001.27.15 30.53 30.53 0 017.473-12.676 7.05 7.05 0 015.48-2.67z" fill="#F7F7F7"/><path d="M35.145 75.286h2.864a11 11 0 007.472-3.418 33.998 33.998 0 01-8.194 1.522c-.748.599-1.445 1.247-2.142 1.896z" fill="#CECECE"/><path d="M59.331 32.615v12.377C58.808 54.6 51.186 62.66 40.675 65.68a7.821 7.821 0 01-1.245 4.866c12.155-1.672 21.52-9.982 22.093-20.462a1.223 1.223 0 010-.275v-.574a1.235 1.235 0 010-.124V37.78a9.244 9.244 0 011.669-5.118 9.218 9.218 0 014.235-3.316 3.348 3.348 0 01-.474-2.495c-3.86.324-7.622 1.971-7.622 5.764zm-47.499-1.672c-1.1.13-2.205.197-3.312.2H7.349A24.98 24.98 0 0013.8 48.411a24.908 24.908 0 008.523 5.956 24.869 24.869 0 0010.208 1.954 25.568 25.568 0 01-13.924-7.735 26.078 26.078 0 01-6.775-17.643z" fill="#F7F7F7"/><path d="M7.473 28.723v2.495h1.17a28.854 28.854 0 003.213-.274 31.929 31.929 0 016.75-19.49l-1.818-1.97a31.39 31.39 0 00-9.315 19.239z" fill="#A0A0A0"/><path d="M18.606 11.454a31.927 31.927 0 00-6.75 19.49 24.671 24.671 0 0016.613-8.834l-9.863-10.655z" fill="#777"/><path d="M26.477 16.32l2.914 3.17a34.414 34.414 0 0116.016-13.5l-.573-2.246A31.458 31.458 0 0026.477 16.32z" fill="#A0A0A0"/><path d="M45.409 5.99a34.415 34.415 0 00-16.016 13.5l1.245 1.347a24.344 24.344 0 0017.834 0L45.41 5.99z" fill="#777"/><path d="M86.53 55.298a4.022 4.022 0 00-.98-2.625 4.008 4.008 0 00-2.457-1.343 5.239 5.239 0 011.844 3.968 6.597 6.597 0 01-2.367 4.99h.125a4.98 4.98 0 002.803-1.812 4.997 4.997 0 001.033-3.178z" fill="#D8C571"/></svg>