<svg width="58" height="111" fill="none" xmlns="http://www.w3.org/2000/svg"><path d="M16.348 84.848a7.452 7.452 0 006.288.46 7.52 7.52 0 002.706-1.778 7.628 7.628 0 001.722-2.76 7.695 7.695 0 00-.536-6.355 7.586 7.586 0 00-2.16-2.425 7.485 7.485 0 00-2.965-1.288 8.004 8.004 0 011.017 7.532 6.09 6.09 0 01-.467 1.083 6.221 6.221 0 01-3.73 2.956 6.147 6.147 0 01-4.705-.566l-.413-.277a7.494 7.494 0 003.242 3.418z" fill="#FCE4D4"/><path d="M13.216 77.177c.206.65.595 1.225 1.12 1.655a3.428 3.428 0 003.779.382 3.48 3.48 0 001.695-2.037c.42-1.109.452-2.33.09-3.46a5.19 5.19 0 00-2.077-2.75 5.093 5.093 0 00-6.42.652l1.593.89c.316.18.55.481.647.835.098.355.053.734-.125 1.054a3.502 3.502 0 00-.302 2.78z" fill="#F2E094"/><path d="M18.739 98.05a12.681 12.681 0 01-3.737-4.864 4.632 4.632 0 01.385-4.253c.258-.388.573-.734.934-1.028a10.14 10.14 0 01-1.237-.472 10.19 10.19 0 01-4.86-5.56 10.337 10.337 0 01.135-7.42l-1.649-.916a1.378 1.378 0 01-.686-.908 1.405 1.405 0 01.22-1.121 7.91 7.91 0 014.188-3.578 7.801 7.801 0 015.482.048 10.149 10.149 0 017.18 1.277 10.347 10.347 0 014.525 5.782c.23.778.368 1.58.412 2.39.97-.172 1.955-.247 2.94-.222a21.42 21.42 0 005.55-7.766 21.646 21.646 0 001.648-9.437 15.558 15.558 0 01-6.896-6.948 14.488 14.488 0 01-10.083 0 12.779 12.779 0 01-3.219 5.239 12.58 12.58 0 01-5.271 3.099 15.815 15.815 0 00-7.78 5.853 16.107 16.107 0 00-2.935 9.349v11.533a10.036 10.036 0 002.888 7.028 9.808 9.808 0 006.948 2.922l4.918-.028z" fill="#FCE4D4"/><path d="M26.542 98.049h.714c1.539 0 2.748-1.946 2.748-4.252 0-2.307-1.154-4.336-2.555-4.336h-8.216c-.31 0-.617.08-.89.23-.274.15-.506.368-.676.632a1.82 1.82 0 00-.164 1.723 9.95 9.95 0 003.634 4.366 9.783 9.783 0 005.405 1.637zm6.813-48.024c.172-.152.38-.257.604-.306a21.54 21.54 0 008.086-7.81 21.863 21.863 0 003.096-10.866c.03-.555.03-1.112 0-1.667h-.33c-7.775 0-14.149-6.087-17.308-12.923-2.748 6.225-8.463 12.034-15.799 12.756a14.767 14.767 0 000 1.834c0 9.255 7.336 20.01 16.815 20.01a12.896 12.896 0 004.836-1.028z" fill="#FCE4D4"/><path d="M43.549 61.392l-.522-.25a24.212 24.212 0 01-6.732 16.675 14.252 14.252 0 017.172 4.863c.302.39.549.778.824 1.195V72.76c0-.369.145-.722.402-.983a1.366 1.366 0 011.943 0c.258.26.402.614.402.983v12.284c0 1.171-.46 2.295-1.28 3.124a4.344 4.344 0 01-3.088 1.294H31.68a8.827 8.827 0 011.291 4.336 8.157 8.157 0 01-1.154 4.252h11.155a9.807 9.807 0 006.947-2.922 10.036 10.036 0 002.89-7.027V76.538c-.11-5.78-2.529-13.2-9.26-15.146z" fill="#F7BCE1"/><path d="M28.987 2.78h-1.511a26.059 26.059 0 00-17.562 8.238A26.65 26.65 0 002.748 29.21c0 10.31 4.314 19.732 10.99 24.012a44.495 44.495 0 014.176 3.057 9.967 9.967 0 002.748-4.474 24.879 24.879 0 01-8.529-8.8 25.228 25.228 0 01-3.34-11.85 19.67 19.67 0 01.33-3.362c.056-.315.218-.6.458-.807.24-.208.544-.325.86-.333 7.528-.194 13.573-7.198 15.66-14.257a1.4 1.4 0 01.524-.723c.248-.176.548-.264.85-.25.315-.018.626.066.889.242.262.175.462.432.568.731 2.115 7.115 8.242 14.313 15.935 14.313.449.025.898.025 1.347 0a1.36 1.36 0 01.979.266c.28.212.471.524.532.873.197 1.12.298 2.254.302 3.39a25.223 25.223 0 01-3.52 11.956 24.865 24.865 0 01-8.789 8.75 14.16 14.16 0 003.553 4.226 13.982 13.982 0 004.882 2.527 13.726 13.726 0 016.732 4.474A28.224 28.224 0 0055.17 48.22V30.96a28.834 28.834 0 00-.165-3.028 26.649 26.649 0 00-8.068-17.807A26.055 26.055 0 0028.986 2.78z" fill="#F2E094"/><path d="M30.223 100.828h-16.32a12.323 12.323 0 01-4.067-.778v8.143h40.498v-9.922a12.381 12.381 0 01-7.473 2.557H30.223z" fill="#F7BCE1"/><path d="M42.725 86.682a11.473 11.473 0 00-5.318-5.52 11.285 11.285 0 00-7.568-.9 10.372 10.372 0 01-4.286 6.448h17.2l-.028-.028z" fill="#A8CDEF"/><path d="M26.844 77.289h.633v-.25l-.633.25zm21.43-16.703a14.765 14.765 0 012.748 2.585 28.223 28.223 0 004.286-14.952V30.96a28.837 28.837 0 00-.165-3.03 26.672 26.672 0 00-6.818-16.622 26.119 26.119 0 00-15.74-8.39 27.499 27.499 0 0112.914 9.61 27.992 27.992 0 015.413 15.264c.11 1.052.165 2.11.165 3.168v17.259a21.6 21.6 0 01-2.803 12.367z" fill="#D8C571"/><path d="M16.018 37.519a1.36 1.36 0 01-1.14-.6 1.399 1.399 0 01-.151-1.29 5.042 5.042 0 011.922-2.278 4.957 4.957 0 012.859-.78 4.875 4.875 0 012.824.758 4.96 4.96 0 011.901 2.244c.128.347.114.73-.038 1.066-.152.337-.43.598-.772.727a1.364 1.364 0 01-1.054-.039 1.388 1.388 0 01-.718-.78 2.238 2.238 0 00-.912-.915 2.205 2.205 0 00-1.259-.253 2.25 2.25 0 00-1.29.302 2.296 2.296 0 00-.908.976 1.387 1.387 0 01-.503.625 1.37 1.37 0 01-.76.237zm14.369 0a1.361 1.361 0 01-1.14-.6 1.4 1.4 0 01-.151-1.29 5.043 5.043 0 011.916-2.294 4.957 4.957 0 012.865-.79 4.875 4.875 0 012.824.756 4.96 4.96 0 011.901 2.245 1.406 1.406 0 01-.352 1.507 1.376 1.376 0 01-.989.372 1.363 1.363 0 01-.959-.444 1.395 1.395 0 01-.282-.463 2.239 2.239 0 00-.912-.914 2.204 2.204 0 00-1.259-.253c-.45-.03-.9.074-1.29.302a2.296 2.296 0 00-.908.976 1.386 1.386 0 01-.497.641 1.363 1.363 0 01-.767.249zm-2.912 9.727a5.447 5.447 0 01-3.094-.81 5.537 5.537 0 01-2.126-2.414 1.402 1.402 0 01.207-.859 1.36 1.36 0 012.266-.086c.269.482.674.872 1.164 1.12a2.72 2.72 0 001.583.27c.57.05 1.14-.082 1.633-.376a2.769 2.769 0 001.115-1.264 1.392 1.392 0 01.733-.764 1.358 1.358 0 011.053-.014 1.394 1.394 0 01.796 1.778 5.543 5.543 0 01-2.131 2.56 5.448 5.448 0 01-3.199.859z" fill="#4C5760"/><path d="M18.227 15.684c2.537-2.099 3.777-4.812 2.768-6.06-1.008-1.247-3.883-.557-6.42 1.541-2.537 2.099-3.777 4.812-2.768 6.06 1.008 1.247 3.883.557 6.42-1.541z" fill="#F7EECB"/><path d="M18.08 43.244c1.486 0 2.692-.66 2.692-1.473 0-.814-1.206-1.473-2.693-1.473s-2.692.66-2.692 1.473c0 .813 1.205 1.473 2.692 1.473zm19.917 0c1.487 0 2.693-.66 2.693-1.473 0-.814-1.206-1.473-2.693-1.473s-2.692.66-2.692 1.473c0 .813 1.205 1.473 2.692 1.473z" fill="#EFCBC5"/><path d="M16.03 77.863c.874-.2 1.416-1.102 1.211-2.016-.204-.913-1.078-1.49-1.951-1.29-.873.2-1.415 1.102-1.21 2.015.204.914 1.078 1.492 1.95 1.291z" fill="#F7EECB"/><path d="M39.95 59.863v.195h.137l-.138-.195zm12.72 28.209V76.538c0-5.78-2.391-13.2-9.15-15.146l-.522-.25v.166a17.237 17.237 0 015.541 6.63 17.457 17.457 0 011.657 8.517v11.534a11.412 11.412 0 01-1.46 5.631 11.251 11.251 0 01-4.034 4.151 9.842 9.842 0 005.69-3.415 10.047 10.047 0 002.277-6.284zm-22.447 12.756H13.738a12.32 12.32 0 01-3.93-.778v3.557H43.96c.561 0 1.1.226 1.496.627.397.401.62.946.62 1.513v2.474h4.368v-9.95a12.381 12.381 0 01-7.473 2.557H30.223z" fill="#D1A3C4"/><path d="M13.27 97.966a11.24 11.24 0 01-4.25-4.141 11.41 11.41 0 01-1.574-5.753V76.538a17.295 17.295 0 012.552-9.515 17.016 17.016 0 017.311-6.52l.248-.362a12.3 12.3 0 01-2.748 1.168 15.814 15.814 0 00-7.78 5.853 16.107 16.107 0 00-2.935 9.348v11.534c.001 2.523.95 4.95 2.653 6.792a9.791 9.791 0 006.524 3.13z" fill="#FFF5F0"/><path d="M11.622 29.32a14.767 14.767 0 000 1.834v.223a15.808 15.808 0 008.243-2.585 21.73 21.73 0 008.242-10.839c-.247-.472-.522-.917-.741-1.39-2.803 6.226-8.408 12.035-15.744 12.757z" fill="#E5CEC1"/><path d="M58 30.96a30.75 30.75 0 00-.165-3.168c-.373-7.494-3.578-14.557-8.952-19.729A28.756 28.756 0 0028.96 0h-1.621c-7.4.413-14.359 3.681-19.446 9.131C2.807 14.581-.018 21.797 0 29.292c0 11.395 4.726 21.511 12.31 26.375 1.181.75 2.253 1.556 3.27 2.362a9.66 9.66 0 01-1.622.64 18.645 18.645 0 00-9.193 6.865 18.99 18.99 0 00-3.5 11.004v11.534c.007 2.144.55 4.252 1.578 6.127a12.67 12.67 0 004.302 4.6c-.019.13-.019.26 0 .39v10.421c0 .369.144.722.402.983s.607.407.971.407h43.164c.364 0 .714-.146.971-.407.258-.261.403-.614.403-.983V95.437a12.744 12.744 0 002.362-7.365V76.538a21.846 21.846 0 00-2.747-10.922A30.818 30.818 0 0058 48.246V30.96zM4.011 88.072V76.538a16.107 16.107 0 012.935-9.348 15.814 15.814 0 017.78-5.854 12.58 12.58 0 005.272-3.099A12.779 12.779 0 0023.217 53 14.487 14.487 0 0033.3 53a15.558 15.558 0 006.896 6.948 21.646 21.646 0 01-1.648 9.47 21.418 21.418 0 01-5.578 7.788 14.61 14.61 0 00-2.994.195 10.422 10.422 0 00-.413-2.39A10.346 10.346 0 0025 69.213a10.149 10.149 0 00-7.224-1.234 7.801 7.801 0 00-5.403.006 7.91 7.91 0 00-4.13 3.523 1.403 1.403 0 00.522 1.89l1.648.917a10.337 10.337 0 00-.135 7.42 10.19 10.19 0 004.86 5.559c.402.184.816.342 1.237.472-.36.294-.675.64-.934 1.028a4.632 4.632 0 00-.385 4.363 12.681 12.681 0 003.737 4.864h-5.055a9.81 9.81 0 01-6.877-2.96 10.036 10.036 0 01-2.85-6.99zm7.501-56.918a14.733 14.733 0 010-1.834c7.446-.722 13.05-6.53 15.963-12.645 3.16 6.865 9.534 12.923 17.31 12.923h.33a16 16 0 010 1.668 21.864 21.864 0 01-3.098 10.866 21.54 21.54 0 01-8.085 7.81 1.34 1.34 0 00-.605.305 12.897 12.897 0 01-5 1.029c-9.479-.112-16.815-10.867-16.815-20.122zm18.71 62.643c0 2.307-1.29 4.252-2.747 4.252h-.961a9.782 9.782 0 01-5.4-1.625 9.948 9.948 0 01-3.64-4.35 1.825 1.825 0 01.165-1.723 1.87 1.87 0 011.593-.89h8.243c1.456 0 2.748 1.946 2.748 4.336zM13.739 73.481a1.398 1.398 0 00-.66-.834l-1.593-.889a5.092 5.092 0 016.42-.652 5.19 5.19 0 012.078 2.75 5.254 5.254 0 01-.09 3.46 3.58 3.58 0 01-.276.64c-.2.44-.487.832-.844 1.153a3.426 3.426 0 01-3.996.437 3.476 3.476 0 01-1.07-.944 3.52 3.52 0 01-.641-2.735c.085-.476.267-.928.534-1.33a1.402 1.402 0 00.138-1.056zM13.6 81.82c1.441.784 3.13.96 4.699.492a6.224 6.224 0 003.681-2.994c.19-.344.347-.708.467-1.083a8.005 8.005 0 00-1.016-7.532 7.458 7.458 0 012.884 1.33 7.56 7.56 0 012.083 2.415 7.652 7.652 0 01.489 6.247 7.6 7.6 0 01-1.683 2.717 7.494 7.494 0 01-2.642 1.771 7.424 7.424 0 01-6.187-.334 7.49 7.49 0 01-3.324-3.418l.55.389zm12.034 4.974a10.372 10.372 0 004.287-6.447c2.55-.587 5.221-.27 7.568.9a11.474 11.474 0 015.317 5.52H25.497l.137.027zm24.728 21.539H9.809v-8.282a12.32 12.32 0 003.929.778h29.068a12.38 12.38 0 007.474-2.557l.082 10.061zm2.363-20.149a10.036 10.036 0 01-2.89 7.027 9.807 9.807 0 01-6.946 2.922h-11.21a8.154 8.154 0 001.291-4.335 8.834 8.834 0 00-1.071-4.336h10.99c1.158 0 2.27-.465 3.089-1.294a4.445 4.445 0 001.28-3.124V72.647c0-.368-.145-.722-.403-.982a1.366 1.366 0 00-1.943 0c-.258.26-.402.614-.402.982v11.117a11.527 11.527 0 00-.825-1.195 14.241 14.241 0 00-7.39-4.752 24.212 24.212 0 006.731-16.675l.495.166c6.759 1.946 9.149 9.394 9.149 15.147l.055 11.728zm2.61-39.853a28.224 28.224 0 01-4.286 14.952 13.727 13.727 0 00-6.731-4.475 13.98 13.98 0 01-4.99-2.549 14.162 14.162 0 01-3.61-4.315 24.876 24.876 0 008.676-8.84 25.228 25.228 0 003.385-11.976 19.997 19.997 0 00-.22-3.335 1.392 1.392 0 00-.531-.873 1.362 1.362 0 00-.98-.267c-.448.026-.898.026-1.346 0-7.665 0-13.737-7.198-15.935-14.313a1.47 1.47 0 00-.569-.73 1.444 1.444 0 00-.888-.242c-.28.015-.547.117-.768.29a1.39 1.39 0 00-.468.682c-2.088 6.948-8.243 14.035-15.66 14.202-.317.008-.62.125-.86.333-.24.207-.403.492-.46.806a19.67 19.67 0 00-.33 3.391 25.23 25.23 0 003.346 11.906 24.878 24.878 0 008.579 8.827 9.968 9.968 0 01-2.748 4.474 44.475 44.475 0 00-4.203-2.974c-6.704-4.28-10.99-13.729-10.99-24.012A26.652 26.652 0 019.885 11.05a26.059 26.059 0 0117.59-8.27h1.484a26.052 26.052 0 0118.039 7.297c4.867 4.68 7.772 11.071 8.117 17.855.108 1.006.163 2.017.165 3.029l.055 17.37z" fill="#4C5760"/></svg>