<svg width="16" height="16" fill="none" xmlns="http://www.w3.org/2000/svg"><path d="M15.33 8.691c.205-.214.32-.504.32-.807 0-.303-.115-.594-.32-.808L10.467 1.98a1.064 1.064 0 00-.763-.307 1.067 1.067 0 00-.753.335c-.2.21-.314.492-.319.788-.005.296.1.583.293.8l3.003 3.146H1.091c-.29 0-.567.12-.771.335-.205.214-.32.505-.32.808 0 .303.115.594.32.808.204.214.482.335.77.335h10.837l-3.003 3.146a1.174 1.174 0 00-.293.8c.005.296.12.578.32.787.2.21.469.33.752.335a1.07 1.07 0 00.763-.306l4.864-5.1z" fill="#FFA8A8"/></svg>