<svg width="28" height="28" fill="none" xmlns="http://www.w3.org/2000/svg"><path d="M12.998 20.953c.267.275.63.43 1.007.43.377 0 .74-.155 1.007-.43l6.357-6.551c.252-.279.39-.647.383-1.028a1.491 1.491 0 00-.418-1.013 1.405 1.405 0 00-.982-.43 1.402 1.402 0 00-.997.394L15.43 16.37V3.247c0-.39-.15-.764-.417-1.039a1.404 1.404 0 00-1.008-.43c-.378 0-.74.154-1.008.43-.267.275-.418.65-.418 1.039V16.37l-3.924-4.045c-.27-.26-.628-.4-.997-.394-.37.007-.722.161-.983.43a1.5 1.5 0 00-.035 2.04l6.358 6.552zm7.354 2.331H7.648c-.378 0-.741.155-1.008.43-.268.276-.418.65-.418 1.04 0 .389.15.762.418 1.038.267.275.63.43 1.008.43h12.704c.378 0 .741-.155 1.008-.43.268-.276.418-.65.418-1.039 0-.39-.15-.763-.418-1.039a1.404 1.404 0 00-1.008-.43z" fill="#fff"/></svg>