<svg width="38" height="38" fill="none" xmlns="http://www.w3.org/2000/svg"><path d="M34.555 19.095c0-2.99-.852-5.92-2.455-8.438a15.585 15.585 0 00-6.589-5.775 15.47 15.47 0 00-8.644-1.29 15.51 15.51 0 00-7.972 3.604 15.66 15.66 0 00-4.782 7.36 15.744 15.744 0 00-.084 8.792 15.666 15.666 0 004.64 7.45 15.515 15.515 0 007.902 3.758V23.619h-3.937v-4.524h3.951v-3.449c0-3.924 2.323-6.088 5.876-6.088 1.167.016 2.33.118 3.483.306v3.85h-1.965c-1.932 0-2.535 1.207-2.535 2.444v2.945h4.331l-.706 4.516h-3.625v10.937a15.536 15.536 0 009.388-5.299 15.712 15.712 0 003.723-10.162z" fill="#3F77BA"/></svg>