<svg width="24" height="24" fill="none" xmlns="http://www.w3.org/2000/svg"><path d="M12 2.303a9.696 9.696 0 11.023 19.393A9.696 9.696 0 0112 2.303zM12 0a12 12 0 1012 11.989A11.989 11.989 0 0012 0z" fill="#80C3BA"/><path d="M12.06 18c-1.663.003-3.275-.624-4.561-1.773a1.17 1.17 0 01-.324-.36 1.322 1.322 0 01-.135-.975c.04-.163.113-.315.211-.447a1.15 1.15 0 01.36-.315 1.04 1.04 0 01.903-.048c.145.06.276.155.386.275a4.81 4.81 0 003.137 1.186 4.809 4.809 0 003.137-1.186c.113-.102.242-.179.382-.226a1.025 1.025 0 01.85.085c.129.075.243.176.337.299.093.123.164.264.207.417a1.323 1.323 0 01-.078.926 1.2 1.2 0 01-.274.369c-1.282 1.14-2.884 1.766-4.538 1.773zm-5.632-6.144a1.428 1.428 0 100-2.856 1.428 1.428 0 000 2.856zm11 0a1.428 1.428 0 100-2.856 1.428 1.428 0 000 2.856z" fill="#80C3BA"/></svg>