<svg width="24" height="24" fill="none" xmlns="http://www.w3.org/2000/svg"><path d="M12 2.303a9.696 9.696 0 11.023 19.393A9.696 9.696 0 0112 2.303zM12 0a12 12 0 1012 11.989A11.989 11.989 0 0012 0z" fill="#FFA180"/><path d="M11.94 13c1.663-.003 3.275.624 4.562 1.773.13.094.24.216.323.36.084.142.14.303.163.47.023.169.014.34-.028.504a1.256 1.256 0 01-.212.448 1.134 1.134 0 01-.36.315 1.04 1.04 0 01-.902.048 1.108 1.108 0 01-.386-.275 4.809 4.809 0 00-3.137-1.186 4.81 4.81 0 00-3.137 1.186 1.088 1.088 0 01-.382.226 1.025 1.025 0 01-.85-.085 1.137 1.137 0 01-.337-.299 1.254 1.254 0 01-.207-.417 1.322 1.322 0 01.078-.927c.068-.14.161-.266.274-.368 1.282-1.14 2.884-1.766 4.538-1.773zm-5.512-1.144a1.428 1.428 0 100-2.856 1.428 1.428 0 000 2.856zm11 0a1.428 1.428 0 100-2.856 1.428 1.428 0 000 2.856z" fill="#FFA180"/></svg>