<svg width="38" height="38" fill="none" xmlns="http://www.w3.org/2000/svg"><path d="M18.995 7.522c3.736 0 4.18 0 5.655.082.888.01 1.767.172 2.6.48a4.335 4.335 0 011.61 1.047 4.335 4.335 0 011.046 1.61c.308.833.47 1.712.48 2.6.066 1.475.083 1.92.083 5.656 0 3.736 0 4.18-.082 5.655a7.747 7.747 0 01-.48 2.6 4.636 4.636 0 01-2.657 2.657 7.743 7.743 0 01-2.6.48c-1.475.066-1.92.083-5.655.083-3.736 0-4.18 0-5.655-.082a7.743 7.743 0 01-2.6-.481 4.334 4.334 0 01-1.61-1.047 4.335 4.335 0 01-1.046-1.61 7.746 7.746 0 01-.48-2.6c-.066-1.475-.083-1.92-.083-5.655 0-3.736 0-4.18.083-5.656.01-.888.172-1.767.48-2.6a4.335 4.335 0 011.047-1.61 4.335 4.335 0 011.61-1.047 7.744 7.744 0 012.6-.48c1.474-.066 1.918-.082 5.654-.082zm0-2.522c-3.792 0-4.279 0-5.767.086-1.16.025-2.31.248-3.396.658a6.86 6.86 0 00-2.479 1.613 6.86 6.86 0 00-1.612 2.479 10.274 10.274 0 00-.655 3.393C5 14.717 5 15.206 5 18.997s0 4.279.086 5.77c.025 1.162.248 2.31.658 3.397.35.934.901 1.78 1.613 2.48a6.86 6.86 0 002.478 1.612c1.087.41 2.235.633 3.397.658 1.494.07 1.975.086 5.77.086 3.795 0 4.279 0 5.77-.086a10.273 10.273 0 003.396-.658 7.157 7.157 0 004.088-4.092c.41-1.087.633-2.235.658-3.397.07-1.494.086-1.975.086-5.77 0-3.796 0-4.28-.086-5.77a10.275 10.275 0 00-.658-3.398 6.861 6.861 0 00-1.613-2.479 6.86 6.86 0 00-2.478-1.613 10.271 10.271 0 00-3.397-.658C23.274 5 22.797 5 18.995 5zm0 6.81a7.185 7.185 0 100 14.37 7.185 7.185 0 000-14.37zm0 11.851a4.664 4.664 0 110-9.328 4.664 4.664 0 010 9.328zm7.472-13.825a1.678 1.678 0 101.678 1.678 1.679 1.679 0 00-1.678-1.668v-.01z" fill="url(#paint0_linear)"/><defs><linearGradient id="paint0_linear" x1="21.098" y1="7.8" x2="10.597" y2="30.199" gradientUnits="userSpaceOnUse"><stop stop-color="#5F73CE"/><stop offset=".271" stop-color="#AB66AA"/><stop offset=".527" stop-color="#C84D8B"/><stop offset=".786" stop-color="#DF6E6B"/><stop offset="1" stop-color="#F5C27D"/></linearGradient></defs></svg>