<svg width="42" height="42" viewBox="0 0 42 42" fill="none" xmlns="http://www.w3.org/2000/svg">
<mask id="mask0" mask-type="alpha" maskUnits="userSpaceOnUse" x="7" y="19" width="27" height="4">
<rect x="7.10547" y="19.1504" width="26.3756" height="3.74721" fill="#C4C4C4"/>
</mask>
<g mask="url(#mask0)">
<path d="M22.8319 22.8897L30.6854 22.8897C31.1873 22.8921 31.6695 22.695 32.0261 22.3418C32.3826 21.9885 32.5843 21.5082 32.5866 21.0063C32.589 20.5044 32.3919 20.0222 32.0387 19.6656C31.6854 19.3091 31.2051 19.1075 30.7032 19.1051L22.8675 19.1229L22.8497 11.2516C22.8325 10.7636 22.6265 10.3013 22.2752 9.96218C21.9238 9.62303 21.4546 9.4335 20.9663 9.4335C20.478 9.4335 20.0087 9.62303 19.6574 9.96218C19.306 10.3013 19.1001 10.7636 19.0828 11.2516L19.0651 19.1229L11.2293 19.1051C10.7413 19.1223 10.2791 19.3283 9.93992 19.6796C9.60077 20.031 9.41123 20.5002 9.41123 20.9885C9.41123 21.4768 9.60077 21.9461 9.93992 22.2974C10.2791 22.6488 10.7413 22.8547 11.2293 22.872L19.1006 22.8897L19.1006 30.7432C19.1178 31.2312 19.3238 31.6935 19.6751 32.0327C20.0265 32.3718 20.4957 32.5613 20.984 32.5613C21.4724 32.5613 21.9416 32.3718 22.2929 32.0327C22.6443 31.6935 22.8502 31.2312 22.8675 30.7432L22.8319 22.8897Z" fill="#FFA8A8"/>
</g>
</svg>
