<svg width="42" height="42" viewBox="0 0 42 42" fill="none" xmlns="http://www.w3.org/2000/svg">
<path d="M22.8878 19.1622L22.8878 11.3087C22.8901 10.8068 22.693 10.3246 22.3398 9.96805C21.9866 9.61151 21.5062 9.40988 21.0043 9.40753C20.5025 9.40517 20.0202 9.60228 19.6637 9.95549C19.3071 10.3087 19.1055 10.7891 19.1032 11.2909L19.1209 19.1267L11.2497 19.1445C10.7616 19.1617 10.2994 19.3677 9.96023 19.719C9.62108 20.0703 9.43154 20.5396 9.43154 21.0279C9.43154 21.5162 9.62108 21.9854 9.96023 22.3368C10.2994 22.6881 10.7616 22.8941 11.2497 22.9113L19.1209 22.9291L19.1032 30.7648C19.1204 31.2528 19.3264 31.7151 19.6777 32.0542C20.029 32.3934 20.4983 32.5829 20.9866 32.5829C21.4749 32.5829 21.9441 32.3934 22.2955 32.0542C22.6468 31.7151 22.8528 31.2528 22.87 30.7648L22.8878 22.8935L30.7413 22.8935C31.2293 22.8763 31.6916 22.6703 32.0307 22.319C32.3698 21.9677 32.5594 21.4984 32.5594 21.0101C32.5594 20.5218 32.3698 20.0525 32.0307 19.7012C31.6916 19.3499 31.2293 19.1439 30.7413 19.1267L22.8878 19.1622Z" fill="#FFA8A8"/>
</svg>
