<svg width="74" height="74" fill="none" xmlns="http://www.w3.org/2000/svg"><path d="M0 0h14c33.137 0 60 26.863 60 60v14H40C17.909 74 0 56.091 0 34V0z" fill="url(#paint0_linear)"/><g filter="url(#filter0_ddiii)"><path d="M38.006 30.363l2.117 4.412c.06.126.147.236.256.318a.808.808 0 00.369.157l4.72.717c.327.05.634.195.887.418.252.222.44.514.543.842.102.327.114.678.036 1.013-.079.335-.245.64-.481.882l-3.42 3.475a.895.895 0 00-.233.761l.805 4.91c.071.345.046.705-.073 1.037-.12.331-.327.62-.598.832a1.719 1.719 0 01-1.91.149l-4.235-2.317a.799.799 0 00-.773 0l-4.233 2.317a1.717 1.717 0 01-1.869-.16 1.847 1.847 0 01-.595-.804 1.926 1.926 0 01-.098-1.01l.847-4.91a.894.894 0 00-.233-.761l-3.461-3.475a1.875 1.875 0 01-.481-.882 1.929 1.929 0 01.036-1.013c.102-.328.29-.62.543-.842a1.74 1.74 0 01.886-.418l4.72-.717a.806.806 0 00.366-.147.85.85 0 00.26-.306l2.116-4.412c.141-.313.364-.578.642-.766a1.722 1.722 0 011.875-.039c.284.177.516.432.67.739z" fill="url(#paint1_linear)"/></g><path opacity=".7" d="M38.006 30.363l2.117 4.412c.06.126.147.236.256.318a.808.808 0 00.369.157l4.72.717c.327.05.634.195.887.418.252.222.44.514.543.842.102.327.114.678.036 1.013-.079.335-.245.64-.481.882l-3.42 3.475a.895.895 0 00-.233.761l.805 4.91c.071.345.046.705-.073 1.037-.12.331-.327.62-.598.832a1.719 1.719 0 01-1.91.149l-4.235-2.317a.799.799 0 00-.773 0l-4.233 2.317a1.717 1.717 0 01-1.869-.16 1.847 1.847 0 01-.595-.804 1.926 1.926 0 01-.098-1.01l.847-4.91a.894.894 0 00-.233-.761l-3.461-3.475a1.875 1.875 0 01-.481-.882 1.929 1.929 0 01.036-1.013c.102-.328.29-.62.543-.842a1.74 1.74 0 01.886-.418l4.72-.717a.806.806 0 00.366-.147.85.85 0 00.26-.306l2.116-4.412c.141-.313.364-.578.642-.766a1.722 1.722 0 011.875-.039c.284.177.516.432.67.739z" fill="url(#paint2_linear)"/><defs><linearGradient id="paint0_linear" x1="0" y1="0" x2="69.017" y2="75.677" gradientUnits="userSpaceOnUse"><stop offset=".151" stop-color="#81B3FF"/><stop offset="1" stop-color="#9CC7FF"/></linearGradient><linearGradient id="paint1_linear" x1="25.842" y1="29.365" x2="45.561" y2="50.987" gradientUnits="userSpaceOnUse"><stop offset=".151" stop-color="#81B3FF"/><stop offset="1" stop-color="#9CC7FF"/></linearGradient><linearGradient id="paint2_linear" x1="25.842" y1="29.365" x2="45.561" y2="50.987" gradientUnits="userSpaceOnUse"><stop offset=".434" stop-color="#F0F1F5"/><stop offset="1" stop-color="#fff"/></linearGradient><filter id="filter0_ddiii" x="20.842" y="24.365" width="30.143" height="30.143" filterUnits="userSpaceOnUse" color-interpolation-filters="sRGB"><feFlood flood-opacity="0" result="BackgroundImageFix"/><feColorMatrix in="SourceAlpha" values="0 0 0 0 0 0 0 0 0 0 0 0 0 0 0 0 0 0 127 0"/><feOffset dx="-2" dy="-2"/><feGaussianBlur stdDeviation="1.5"/><feColorMatrix values="0 0 0 0 0.419826 0 0 0 0 0.622044 0 0 0 0 0.891667 0 0 0 0.58 0"/><feBlend in2="BackgroundImageFix" result="effect1_dropShadow"/><feColorMatrix in="SourceAlpha" values="0 0 0 0 0 0 0 0 0 0 0 0 0 0 0 0 0 0 127 0"/><feOffset dx="2" dy="2"/><feGaussianBlur stdDeviation="1"/><feColorMatrix values="0 0 0 0 0.6 0 0 0 0 0.771429 0 0 0 0 1 0 0 0 1 0"/><feBlend in2="effect1_dropShadow" result="effect2_dropShadow"/><feBlend in="SourceGraphic" in2="effect2_dropShadow" result="shape"/><feColorMatrix in="SourceAlpha" values="0 0 0 0 0 0 0 0 0 0 0 0 0 0 0 0 0 0 127 0" result="hardAlpha"/><feOffset dx="-2" dy="-2"/><feGaussianBlur stdDeviation="5"/><feComposite in2="hardAlpha" operator="arithmetic" k2="-1" k3="1"/><feColorMatrix values="0 0 0 0 0.643425 0 0 0 0 0.796243 0 0 0 0 1 0 0 0 1 0"/><feBlend in2="shape" result="effect3_innerShadow"/><feColorMatrix in="SourceAlpha" values="0 0 0 0 0 0 0 0 0 0 0 0 0 0 0 0 0 0 127 0" result="hardAlpha"/><feOffset dx="2" dy="2"/><feGaussianBlur stdDeviation="2"/><feComposite in2="hardAlpha" operator="arithmetic" k2="-1" k3="1"/><feColorMatrix values="0 0 0 0 0.385764 0 0 0 0 0.613294 0 0 0 0 0.916667 0 0 0 0.74 0"/><feBlend in2="effect3_innerShadow" result="effect4_innerShadow"/><feColorMatrix in="SourceAlpha" values="0 0 0 0 0 0 0 0 0 0 0 0 0 0 0 0 0 0 127 0" result="hardAlpha"/><feOffset dx="1" dy="1"/><feGaussianBlur stdDeviation="1"/><feComposite in2="hardAlpha" operator="arithmetic" k2="-1" k3="1"/><feColorMatrix values="0 0 0 0 0.416667 0 0 0 0 0.596667 0 0 0 0 0.833333 0 0 0 0.25 0"/><feBlend in2="effect4_innerShadow" result="effect5_innerShadow"/></filter></defs></svg>