<svg width="16" height="16" fill="none" xmlns="http://www.w3.org/2000/svg"><path fill-rule="evenodd" clip-rule="evenodd" d="M13.01 9.607l2.588-2.523a1.346 1.346 0 00-.746-2.29l-3.572-.521a.625.625 0 01-.473-.345L9.206.724a1.346 1.346 0 00-2.411.048L5.192 3.976a.625.625 0 01-.472.329l-3.573.52a1.346 1.346 0 00-.744 2.291L3.022 9.64a.625.625 0 01.176.553l-.64 3.565a1.345 1.345 0 001.938 1.433L7.7 13.508a.625.625 0 01.584 0l3.204 1.682a1.345 1.345 0 001.955-1.466l-.609-3.564a.625.625 0 01.176-.553zm-6.246 2.134a2.624 2.624 0 012.452-.002c.001 0 .003 0 .004.002l2.038 1.07-.395-2.311a2.624 2.624 0 01.742-2.315l.009-.01 1.635-1.594-2.254-.329h-.002a2.625 2.625 0 01-1.977-1.435L8.012 2.809l-1.04 2.08-.01.02a2.625 2.625 0 01-1.964 1.376l-2.237.326 1.657 1.597.01.009a2.625 2.625 0 01.74 2.322l-.002.007-.403 2.245 2-1.05z" fill="#81B7FF"/></svg>