<svg width="25" height="25" viewBox="0 0 25 25" fill="none" xmlns="http://www.w3.org/2000/svg">
<path fill-rule="evenodd" clip-rule="evenodd" d="M20.3285 15.0114L24.371 11.069C24.6499 10.795 24.8469 10.4486 24.9398 10.0688C25.0327 9.68903 25.0178 9.29086 24.8969 8.91903C24.776 8.54721 24.5538 8.21646 24.2553 7.96394C23.9568 7.71143 23.5938 7.54714 23.2071 7.48955L17.6251 6.67604C17.4675 6.65338 17.3178 6.59249 17.1891 6.49868C17.0604 6.40487 16.9566 6.281 16.8867 6.13787L14.3836 1.13163C14.2027 0.784152 13.9283 0.494126 13.5914 0.294253C13.2544 0.0943806 12.8684 -0.00738972 12.4767 0.000417733C12.085 0.00822518 11.7033 0.1253 11.3746 0.338441C11.0459 0.551582 10.7833 0.852313 10.6164 1.20672L8.11328 6.21296C8.04034 6.35142 7.93518 6.47031 7.80667 6.55961C7.67816 6.64892 7.53006 6.70602 7.37486 6.7261L1.79291 7.53962C1.40618 7.59721 1.04318 7.76149 0.744667 8.014C0.446156 8.26652 0.223968 8.59727 0.10306 8.96909C-0.0178485 9.34092 -0.0326863 9.73909 0.0602129 10.1189C0.153112 10.4987 0.350068 10.845 0.628957 11.1191L4.72156 15.0615C4.83386 15.1724 4.91757 15.309 4.96553 15.4594C5.01349 15.6098 5.02425 15.7696 4.9969 15.9251L3.99565 21.4945C3.92692 21.8801 3.96724 22.2771 4.11205 22.641C4.25686 23.0049 4.50042 23.3211 4.81527 23.5539C5.13013 23.7868 5.50376 23.9272 5.89408 23.9591C6.2844 23.9911 6.67589 23.9134 7.02443 23.7348L12.0307 21.1065C12.1714 21.032 12.3282 20.993 12.4875 20.993C12.6467 20.993 12.8036 21.032 12.9443 21.1065L17.9505 23.7348C18.3039 23.9253 18.7045 24.0106 19.1048 23.9807C19.5052 23.9508 19.8886 23.8069 20.2097 23.566C20.5309 23.3251 20.7764 22.9974 20.9172 22.6214C21.058 22.2454 21.0883 21.837 21.0043 21.4444L20.0532 15.875C20.0258 15.7195 20.0366 15.5597 20.0845 15.4093C20.1325 15.2589 20.2162 15.1224 20.3285 15.0114ZM10.5683 18.3448C10.5705 18.3436 10.5727 18.3425 10.5749 18.3413C11.1645 18.0305 11.8209 17.868 12.4875 17.868C13.154 17.868 13.8105 18.0305 14.4001 18.3413C14.4023 18.3425 14.4045 18.3436 14.4066 18.3448L17.5902 20.0161L16.9736 16.4061C16.861 15.7561 16.9068 15.0886 17.1072 14.46C17.3087 13.8281 17.6604 13.2545 18.1322 12.7884L18.1466 12.7741L20.7017 10.2824L17.1804 9.76924C17.179 9.76904 17.1776 9.76883 17.1762 9.76863C16.5155 9.67294 15.8881 9.41739 15.3485 9.02413C14.8132 8.63402 14.3805 8.12013 14.0872 7.5265L12.5188 4.38969L10.8935 7.64016L10.8781 7.6695C10.5717 8.25117 10.1299 8.75065 9.58998 9.12583C9.05932 9.49459 8.44918 9.73264 7.80934 9.82079L4.31436 10.3302L6.90382 12.8246L6.91789 12.8385C7.38968 13.3046 7.74139 13.8782 7.94286 14.5101C8.14433 15.142 8.18955 15.8133 8.07464 16.4665L8.07261 16.478L7.44192 19.9861L10.5683 18.3448Z" fill="#B8A8FF"/>
</svg>
