<svg width="80" height="80" viewBox="0 0 80 80" fill="none" xmlns="http://www.w3.org/2000/svg">
<path d="M71.3589 59.0712C71.0714 59.3656 70.7219 59.5922 70.3358 59.7345C69.9497 59.8767 69.5367 59.931 69.127 59.8934H61.8012C59.9965 59.8934 59.1742 59.0605 56.6113 56.1985C55.6929 55.1306 54.6357 53.988 53.3008 52.6424C50.5243 49.9407 48.4312 48.3709 46.8934 47.9864C46.5514 47.8884 46.1917 47.8682 45.8409 47.9274C45.49 47.9866 45.1568 48.1237 44.8659 48.3285C44.575 48.5334 44.3337 48.8009 44.1597 49.1113C43.9857 49.4217 43.8835 49.7671 43.8606 50.1222C43.8606 50.9125 43.8606 52.1726 43.8606 53.5074C43.8606 53.5074 43.8606 54.1375 43.8606 54.1589C43.8606 55.1093 43.9461 57.3625 42.6859 58.6547C42.1487 59.1053 41.528 59.4457 40.8592 59.6564C40.1904 59.8671 39.4866 59.944 38.7881 59.8828C17.8147 59.8934 5 27.0557 5 21.9619C5 21.3318 5 20.0076 7.36004 20.0076H14.6858C16.3837 20.0076 17.0992 20.6377 17.8147 22.7628C20.7087 31.3059 24.8415 38.1618 27.4258 40.917C27.751 41.2912 28.185 41.5546 28.6672 41.6703C29.1493 41.7861 29.6556 41.7485 30.1153 41.5627C30.575 41.3769 30.9653 41.0523 31.2317 40.634C31.4981 40.2158 31.6272 39.7249 31.6012 39.2297C31.4607 36.7399 31.4607 34.2442 31.6012 31.7545C31.6973 28.3052 31.8041 26.0626 29.5615 23.2113C29.1344 22.688 28.4936 21.6842 28.8674 20.894C29.0258 20.624 29.252 20.4002 29.5236 20.2447C29.7953 20.0892 30.1029 20.0075 30.4159 20.0076H41.9277C42.3885 19.9672 42.849 20.088 43.2306 20.3494C43.9674 21.1076 43.9033 23.7987 43.8499 25.9451V26.5859C43.7966 28.9566 43.7218 32.1496 43.8499 36.325C43.8614 36.7776 44.0015 37.2175 44.254 37.5932C44.5065 37.9689 44.8608 38.2649 45.2755 38.4464C45.6901 38.628 46.1479 38.6876 46.5953 38.6183C47.0426 38.5489 47.4609 38.3536 47.8011 38.055C51.6883 34.6378 56.2802 25.7636 57.7326 22.0366C57.9509 21.4161 58.3644 20.883 58.9112 20.5172C59.4579 20.1514 60.1085 19.9727 60.7654 20.0076H68.0911C69.5434 20.0076 69.9386 20.5202 70.056 20.6804C70.2062 20.9531 70.292 21.2566 70.3069 21.5675C70.3217 21.8785 70.2651 22.1887 70.1415 22.4745C70.1193 22.5372 70.1014 22.6015 70.0881 22.6667C69.1804 26.3296 62.4633 36.6134 60.2848 39.4967C60.178 39.6569 59.9858 39.9772 59.8683 40.2122C59.6783 40.5806 59.5881 40.9923 59.6068 41.4064C59.6256 41.8206 59.7525 42.2225 59.9751 42.5722C60.5651 43.3578 61.2226 44.0903 61.94 44.7614C64.471 47.3884 70.3871 53.5502 71.455 56.9033C71.6093 57.2471 71.681 57.6222 71.6643 57.9987C71.6476 58.3751 71.543 58.7424 71.3589 59.0712V59.0712Z" fill="#6E9BD7"/>
</svg>
