<svg width="38" height="38" viewBox="0 0 38 38" fill="none" xmlns="http://www.w3.org/2000/svg">
<path d="M34.1654 11.359C33.8104 10.0456 32.7701 9.01027 31.4509 8.65659C29.0406 8 19.3997 8 19.3997 8C19.3997 8 9.759 8 7.34876 8.63157C6.05494 8.98501 4.98928 10.0458 4.63422 11.359C4 13.758 4 18.7333 4 18.7333C4 18.7333 4 23.7337 4.63422 26.1077C4.98952 27.4209 6.02956 28.4564 7.349 28.8101C9.78438 29.4667 19.3999 29.4667 19.3999 29.4667C19.3999 29.4667 29.0406 29.4667 31.4509 28.8351C32.7703 28.4817 33.8104 27.4461 34.1656 26.1329C34.7999 23.7337 34.7999 18.7586 34.7999 18.7586C34.7999 18.7586 34.8252 13.758 34.1654 11.359Z" fill="#FF7070"/>
<path d="M16.3948 23.441L24.2826 18.7334L16.3948 14.0258V23.441Z" fill="white"/>
</svg>
