<svg id="Layer_1" data-name="Layer 1" xmlns="http://www.w3.org/2000/svg" viewBox="0 0 595.28 612"><defs><style>.cls-1{fill:#4c5760;}.cls-2{fill:#f7bce1;}.cls-3{fill:#d1a3c4;}.cls-4{fill:#a8cdef;}.cls-5{fill:#aed9ff;}.cls-6{fill:#f4d3e9;}</style></defs><path class="cls-1" d="M42.1,235.54v-90c.8-.13.91-.76,1.16-1.39,6.21-15.46,15.34-21.6,32.09-21.61,16.14,0,32.28-.1,48.42.09,3.38,0,4.41-.67,4.5-4.26a114.35,114.35,0,0,1,6.78-37.09c4.79-13,11.67-24.56,23.68-32.38,4.74-3.08,10.24-4.15,15.32-6.33h15c16.64,3.28,28.47,14.67,41.24,24.48,11.21,8.61,22.42,17.22,33.51,26,2.16,1.7,3.53,1.85,6,.34,23-14,46.74-14.16,71-3.41,8.15,8.71,14.2,3.5,21.75-2,21.75-15.7,40.09-36.47,66.42-45.45h16c23,5.39,34.27,22,40.95,42.92a106.23,106.23,0,0,1,5.23,32.31c0,3.92,1.27,5,5.11,4.84,9.3-.29,18.61-.19,27.92-.07a30.08,30.08,0,0,1,28.29,20.6c.39,1.11-.29,2.81,1.45,3.37v89c-3.09,6-8.18,7.91-14.5,7-4.61-.69-5.6,1.1-5.59,5.57.14,90.93,0,181.86.21,272.79,0,12.36-5.48,20.81-15.28,27.29-4.85,3.21-10.42,4.51-15.82,6.27H85.09c-.3-.34-.53-.85-.91-1-16.63-7.06-22.09-15.25-22.09-33.25q0-136.3.11-272.61c0-4.12-.89-5.64-5.1-5.06C50.71,243.38,45.28,241.78,42.1,235.54Zm140.84,7H177.1c-29.81,0-59.63.1-89.44-.11-4.5,0-5.69,1.06-5.68,5.64q.22,136.41.11,272.82c0,10.33,3.15,13.54,13.3,13.54,55.8,0,111.59-.07,167.39.12,4.55,0,5.34-1.26,5.33-5.49q-.19-123.91-.1-247.84v-4.67a12.7,12.7,0,0,0-3,4.21q-13.6,26.94-27.16,53.89c-2.33,4.64-5.36,8.13-11,7.74-4.89-.33-7.81-3.49-9.56-10-3.44-12.84-6.91-25.68-10.21-38.56-.73-2.87-1.67-3.66-4.77-2.79-13.27,3.75-26.66,7.08-39.95,10.78-4.92,1.36-8.92.46-12-3.58-2.92-3.84-2.58-8.05.94-12.87,5.31-7.26,10.72-14.44,16.07-21.66ZM348.22,275.2c-.15,2.06-.23,2.68-.23,3.3q0,125.92-.1,251.85c0,3.88,1.49,4.14,4.63,4.14q71.46-.13,142.91-.07a35.49,35.49,0,0,0,4-.11c8.27-1,14.48-6.23,14.48-12.39q0-137.67.08-275.34c0-3.29-.9-4.14-4.14-4.11-18.16.15-36.31.07-54.47.07H433.76c1.4,2,2.3,3.3,3.24,4.59,8.81,12.12,17.56,24.28,26.46,36.33,3.35,4.53,5.93,9,2.37,14.54-2.86,4.41-7,5.18-14.8,3.08-12.36-3.32-24.76-6.47-37.06-10-3.31-.95-4.28-.09-5.06,3-3.24,12.73-6.77,25.37-10.06,38.09-1.34,5.18-3.54,9.4-9.43,10.24-4.72.67-8.23-1.84-11.33-8C368.34,315.1,358.62,295.81,348.22,275.2Zm-40.07-79.28c-.83,1.32-1.29,2-1.64,2.64C301,209.39,295.63,220.26,290,231a18.86,18.86,0,0,0-2.08,9.05q.09,81.18,0,162.36c0,42.46.05,84.93-.08,127.39,0,3.65.74,4.82,4.59,4.71,10.15-.31,20.32-.34,30.46,0,4.23.15,5.13-1.08,5.12-5.19q-.18-144.87-.11-289.76c0-1.65.31-3.54-.36-4.91C321.34,221.92,314.88,209.25,308.15,195.92Zm75.27-53.35c-4.49,0-9-.07-13.49.05-1.31,0-3.25-.89-3.74,1.3-.39,1.79,1.39,2.07,2.44,2.68,17.63,10.39,35.17,20.93,53,31S454,183,462.9,164.78c5.83-11.86,8.12-24.59,8.37-37.7.32-17.17-1.67-33.93-10.26-49.23-9.22-16.41-26.06-20.3-41-9.11-18.25,13.67-36.1,27.88-54.24,41.7-4.42,3.37-.07,6.13,0,9.17.08,2.71,1.75,3,4,3,9.16-.1,18.32-.13,27.48,0,6.36.08,10.74,4.41,10.62,10.15-.11,5.55-4.38,9.61-10.5,9.77C392.75,142.66,388.09,142.57,383.42,142.57ZM232,122.59h7.49c9.24,0,9.07-.08,12.8-8.36,1.26-2.82,1-4.23-1.5-6.1C234,95.32,217.44,82.22,200.6,69.45c-16-12.12-33-8.22-42.67,9.42-6,11-8.48,23-9.42,35.39-1.39,18.35.45,36.29,9.42,52.78,8.61,15.83,22.59,20.17,38.31,11.46,17.44-9.67,34.48-20.06,51.71-30.11,1.55-.9,2.62-1.75,2.13-3.88-.57-2.48-2.38-1.91-3.92-1.92-9.15,0-18.31.07-27.47-.05-6.38-.09-10.72-4.37-10.61-10.14.1-5.56,4.36-9.62,10.47-9.78C223,122.5,227.54,122.59,232,122.59Zm-7.81,64.26c-2.86-.55-4.27,1.16-5.93,2.06-5.26,2.85-10.29,6.16-15.68,8.71-23.09,10.89-46.33,4.14-60.08-17.22-6.59-10.24-10.37-21.57-12.25-33.48-.6-3.77-2-4.45-5.4-4.41-16.82.16-33.64.05-50.46.08-8.83,0-12.31,3.54-12.32,12.49,0,20.82.13,41.64-.11,62.45-.05,4.23,1.11,5.13,5.2,5.11,40.3-.16,80.61-.32,120.91.11,7.34.08,11.79-2,15.77-8.08C210.08,205.16,217.25,196.28,224.22,186.85Zm167.63-1.8c8.75,12,17.45,23.94,26.07,35.93,1.21,1.68,2.73,1.57,4.39,1.57,36,0,71.93-.05,107.89.07,3.23,0,3.79-1,3.77-4-.11-21.64,0-43.28-.08-64.93,0-7.21-3.93-11.06-11.17-11.12-9.65-.08-19.31.13-29-.11-3-.07-3.88,1-4.34,3.77a92.15,92.15,0,0,1-10.49,31c-13.2,23.31-36.83,31.61-60.91,20.93-7.41-3.28-14.23-7.89-21.35-11.84C395.3,185.6,394.18,183.94,391.85,185.05ZM431.28,275l.51-1Q393.38,221.15,355,168.3c-1.39-1.92-2.28-1.66-3.84-.25a52.1,52.1,0,0,1-23.74,12.07c-3.93.89-3.86,2.12-2.3,5.19q29.2,57.54,58.26,115.13c.52,1,.56,2.66,2.46,2.71,2.14-8,4.25-16.06,6.4-24.08,2.8-10.43,6.65-12.64,17-9.88C416.57,271.15,423.93,273,431.28,275ZM230.56,304.51c6-11.93,11.49-22.72,16.95-33.5q21.6-42.72,43.25-85.41c1.58-3.12,2-4.66-2.32-5.57A48.58,48.58,0,0,1,267,169.81c-2.77-2.32-3.93-2-6,.83q-36.72,49.85-73.64,99.54c-.94,1.26-2.49,2.28-2.31,4.74,8.12-2.16,16.08-4.37,24.1-6.37,7.32-1.84,11.82.87,13.85,8.19C225.49,285.54,227.82,294.38,230.56,304.51Zm80-201.91c-12.3,0-21.11,2.08-27.81,6.07-19.12,11.4-19.45,36.84,0,47.64,16.52,9.18,34.08,9.1,50.55-.11,19.4-10.86,19-36.37-.25-47.61A46.52,46.52,0,0,0,310.6,102.6Z"/><path class="cls-2" d="M348.22,275.2c10.4,20.61,20.12,39.9,29.87,59.19,3.1,6.14,6.61,8.65,11.33,8,5.89-.84,8.09-5.06,9.43-10.24,3.29-12.72,6.82-25.36,10.06-38.09.78-3.06,1.75-3.92,5.06-3,12.3,3.54,24.7,6.69,37.06,10,7.82,2.1,11.94,1.33,14.8-3.08,3.56-5.52,1-10-2.37-14.54-8.9-12-17.65-24.21-26.46-36.33-.94-1.29-1.84-2.61-3.24-4.59h21.62c18.16,0,36.31.08,54.47-.07,3.24,0,4.14.82,4.14,4.11q-.13,137.67-.08,275.34c0,6.16-6.21,11.43-14.48,12.39a35.49,35.49,0,0,1-4,.11q-71.46,0-142.91.07c-3.14,0-4.64-.26-4.63-4.14q.19-125.93.1-251.85C348,277.88,348.07,277.26,348.22,275.2Z"/><path class="cls-3" d="M361.49,317c3.11,6.14,6.62,8.65,11.34,8a11.26,11.26,0,0,0,1.21-.24c-8.13-16.09-16.32-32.33-25-49.49-.14,2.06-.22,2.68-.22,3.3v13.39Z"/><path class="cls-3" d="M510.7,242.47q-6.66.06-13.31.07-.12,131-.08,261.94c0,6.16-6.2,11.43-14.48,12.39a35.32,35.32,0,0,1-4,.11q-65,0-130.09,0,0,6.66,0,13.32c0,3.88,1.49,4.14,4.62,4.14q71.46-.13,142.92-.07a35.32,35.32,0,0,0,4-.11c8.28-1,14.48-6.23,14.48-12.39q0-137.67.09-275.34C514.84,243.29,513.94,242.44,510.7,242.47Z"/><path class="cls-4" d="M308.15,195.92c6.73,13.33,13.19,26,19.47,38.76.67,1.37.36,3.26.36,4.91q0,144.89.11,289.76c0,4.11-.89,5.34-5.12,5.19-10.14-.34-20.31-.31-30.46,0-3.85.11-4.6-1.06-4.59-4.71.13-42.46.08-84.93.08-127.39q0-81.18,0-162.36A18.86,18.86,0,0,1,290,231c5.59-10.77,11-21.64,16.47-32.47C306.86,197.87,307.32,197.24,308.15,195.92Z"/><path class="cls-4" d="M383.42,142.57c4.67,0,9.33.09,14,0,6.12-.16,10.39-4.22,10.5-9.77.12-5.74-4.26-10.07-10.62-10.15-9.16-.12-18.32-.09-27.48,0-2.29,0-4-.31-4-3-.1-3-4.45-5.8,0-9.17,18.14-13.82,36-28,54.24-41.7,15-11.19,31.8-7.3,41,9.11,8.59,15.3,10.58,32.06,10.26,49.23-.25,13.11-2.54,25.84-8.37,37.7C454,183,439.27,187.65,421.59,177.62s-35.33-20.63-53-31c-1.05-.61-2.83-.89-2.44-2.68.49-2.19,2.43-1.27,3.74-1.3C374.43,142.5,378.93,142.57,383.42,142.57Z"/><path class="cls-4" d="M232,122.59c-4.49,0-9-.09-13.48,0-6.11.16-10.37,4.22-10.47,9.78-.11,5.77,4.23,10,10.61,10.14,9.16.12,18.32,0,27.47.05,1.54,0,3.35-.56,3.92,1.92.49,2.13-.58,3-2.13,3.88-17.23,10.05-34.27,20.44-51.71,30.11-15.72,8.71-29.7,4.37-38.31-11.46-9-16.49-10.81-34.43-9.42-52.78.94-12.34,3.39-24.36,9.42-35.39,9.63-17.64,26.7-21.54,42.67-9.42,16.84,12.77,33.42,25.87,50.22,38.68,2.45,1.87,2.76,3.28,1.5,6.1-3.73,8.28-3.56,8.36-12.8,8.36Z"/><path class="cls-5" d="M170.53,129.8c.72-9.55,2.62-18.85,7.28-27.38,7.46-13.65,20.66-16.66,33-7.29,9.75,7.4,19.4,14.94,29.09,22.43l.69-1.52c1-2.18.74-3.27-1.16-4.71-13-9.92-25.83-20-38.86-29.93C188.24,72,175,75,167.58,88.69c-4.66,8.53-6.56,17.83-7.29,27.37-1.07,14.21.35,28.09,7.29,40.84a25.54,25.54,0,0,0,8.08,9.33C170.59,154.71,169.58,142.38,170.53,129.8Z"/><path class="cls-5" d="M448.6,129.8c-.73-9.55-2.63-18.85-7.29-27.38-7.45-13.65-20.66-16.66-33-7.29-9.76,7.4-19.41,14.94-29.1,22.43l-.68-1.52c-1-2.18-.74-3.27,1.15-4.71,13-9.92,25.84-20,38.86-29.93,12.36-9.38,25.57-6.36,33,7.29,4.66,8.53,6.56,17.83,7.28,27.37,1.08,14.21-.34,28.09-7.28,40.84a25.65,25.65,0,0,1-8.09,9.33C448.53,154.71,449.55,142.38,448.6,129.8Z"/><path class="cls-2" d="M224.22,186.85c-7,9.43-14.14,18.31-20.35,27.82-4,6.09-8.43,8.16-15.77,8.08-40.3-.43-80.61-.27-120.91-.11-4.09,0-5.25-.88-5.2-5.11.24-20.81.09-41.63.11-62.45,0-9,3.49-12.48,12.32-12.49,16.82,0,33.64.08,50.46-.08,3.42,0,4.8.64,5.4,4.41,1.88,11.91,5.66,23.24,12.25,33.48,13.75,21.36,37,28.11,60.08,17.22,5.39-2.55,10.42-5.86,15.68-8.71C220,188,221.36,186.3,224.22,186.85Z"/><path class="cls-2" d="M391.85,185.05c2.33-1.11,3.45.55,4.81,1.3,7.12,4,13.94,8.56,21.35,11.84,24.08,10.68,47.71,2.38,60.91-20.93a92.15,92.15,0,0,0,10.49-31c.46-2.79,1.3-3.84,4.34-3.77,9.66.24,19.32,0,29,.11,7.24.06,11.14,3.91,11.17,11.12.06,21.65,0,43.29.08,64.93,0,2.93-.54,4-3.77,4-36-.12-71.93-.08-107.89-.07-1.66,0-3.18.11-4.39-1.57C409.3,209,400.6,197.07,391.85,185.05Z"/><path class="cls-4" d="M431.28,275c-7.35-1.93-14.71-3.82-22-5.78-10.34-2.76-14.19-.55-17,9.88-2.15,8-4.26,16-6.4,24.08-1.9,0-1.94-1.7-2.46-2.71q-29.14-57.56-58.26-115.13c-1.56-3.07-1.63-4.3,2.3-5.19a52.1,52.1,0,0,0,23.74-12.07c1.56-1.41,2.45-1.67,3.84.25Q393.34,221.18,431.79,274Z"/><path class="cls-5" d="M355,168.3c-1.39-1.92-2.28-1.66-3.84-.25a49.8,49.8,0,0,1-10,7q34.2,47.19,68.51,94.31c7.18,1.91,14.37,3.77,21.56,5.65l.51-1Q393.38,221.15,355,168.3Z"/><path class="cls-4" d="M230.56,304.51c-2.74-10.13-5.07-19-7.5-27.77-2-7.32-6.53-10-13.85-8.19-8,2-16,4.21-24.1,6.37-.18-2.46,1.37-3.48,2.31-4.74q36.81-49.78,73.64-99.54c2.05-2.79,3.21-3.15,6-.83A48.58,48.58,0,0,0,288.44,180c4.34.91,3.9,2.45,2.32,5.57Q269,228.26,247.51,271C242.05,281.79,236.6,292.58,230.56,304.51Z"/><path class="cls-5" d="M212.38,268.12q33.57-45.36,67.13-90.74A47.13,47.13,0,0,1,267,169.89c-2.77-2.32-3.93-1.95-6,.83q-36.72,49.86-73.64,99.54c-.94,1.26-2.49,2.28-2.31,4.74,8.12-2.15,16.08-4.36,24.1-6.37A18.26,18.26,0,0,1,212.38,268.12Z"/><path class="cls-4" d="M310.6,102.6a46.52,46.52,0,0,1,22.47,6c19.21,11.24,19.65,36.75.25,47.61-16.47,9.21-34,9.29-50.55.11-19.43-10.8-19.1-36.24,0-47.64C289.49,104.68,298.3,102.57,310.6,102.6Z"/><path class="cls-2" d="M268,281.22v-4.67a12.7,12.7,0,0,0-3,4.21q-13.6,26.94-27.16,53.89c-2.33,4.64-5.36,8.13-11,7.74-4.89-.33-7.81-3.49-9.56-10-3.44-12.84-6.91-25.68-10.21-38.56-.73-2.87-1.67-3.66-4.77-2.79-13.27,3.75-26.66,7.08-39.95,10.78-4.92,1.36-8.92.46-12-3.58-2.92-3.84-2.58-8.05.94-12.87,5.31-7.26,10.72-14.44,16.07-21.66l15.61-21.13H177.1c-29.81,0-59.63.1-89.44-.11-4.5,0-5.69,1.06-5.68,5.64q.22,136.41.11,272.82c0,10.33,3.15,13.54,13.3,13.54,55.8,0,111.59-.07,167.39.12,4.55,0,5.34-1.26,5.33-5.49Q267.92,405.15,268,281.22Z"/><path class="cls-6" d="M104.73,270.83c0-4.59,1.18-5.68,5.68-5.65,18.57.14,37.13.14,55.7.13.4-.55.81-1.09,1.22-1.64l15.61-21.13H177.1c-29.81,0-59.63.1-89.44-.11-4.5,0-5.69,1.06-5.68,5.64q.22,136.41.11,272.82c0,10.33,3.15,13.54,13.3,13.54h9.45Q104.84,402.63,104.73,270.83Z"/></svg>