<svg width="85" height="117" fill="none" xmlns="http://www.w3.org/2000/svg"><path d="M27.178 47.81a11.75 11.75 0 013.44 0 6.741 6.741 0 011.55.48v-1.975a1.41 1.41 0 112.819 0v12.777a.734.734 0 00.733.734h10.037a7.046 7.046 0 016.991 6.854 3.895 3.895 0 01-2.375 3.698 3.89 3.89 0 01-1.515.307h-15.28a9.357 9.357 0 01-6.344-2.51v3.046a10.656 10.656 0 009.416 10.578c4.68.535 4.68 2.087 4.68 2.594v8.885h24.36V78.611a1.447 1.447 0 010-.17c0-5.81-1.156-16.218-6.626-20.9a9.756 9.756 0 00-2.396-1.467H47.42a4.566 4.566 0 01-4.567-4.597v-.593a5.643 5.643 0 015.638-5.641h.846a17.932 17.932 0 00-4.229-3.808 12.909 12.909 0 01-7.725 2.623A12.74 12.74 0 0130.476 42a8.461 8.461 0 00-3.298 5.81z" fill="#B2A6E8"/><path d="M2.96 114.066H81.9c-.79-4.202-5.78-7.926-12.997-10.633v1.184a1.413 1.413 0 01-1.41 1.411H65.07v1.015a3.949 3.949 0 01-3.947 3.949H46.067a3.579 3.579 0 01-3.58-3.582v-8.293c-20.355 0-37.722 6.713-39.526 14.949z" fill="#D5EF95"/><path d="M42.092 39.94a5.64 5.64 0 01-2.227-3.752 10.314 10.314 0 01-7.781 0l.197 3.667a10.23 10.23 0 009.811.085z" fill="#E5CEC1"/><path d="M45.672 50.884v.592a1.75 1.75 0 001.748 1.75h9.613v-2.342a2.822 2.822 0 00-2.819-2.82h-5.638a2.82 2.82 0 00-2.904 2.82z" fill="#FCE4D4"/><path d="M45.307 107.438a.763.763 0 00.76.762h7.162a1.126 1.126 0 001.127-1.129v-.648a4.117 4.117 0 00-4.116-4.119h-4.933v5.134z" fill="#EFA0A0"/><path d="M36.002 34.13c5.864 0 10.572-6.855 10.572-12.552a10.552 10.552 0 00-9.05-10.437c-1.889 4.965-6.512 9.703-12.151 9.844v.593c0 5.67 4.765 12.552 10.629 12.552z" fill="#FCE4D4"/><path d="M57.006 108.2h4.173a1.126 1.126 0 001.127-1.129v-.648a4.117 4.117 0 00-4.116-4.119h-2.368a6.858 6.858 0 011.382 4.119v.62a3.929 3.929 0 01-.198 1.157z" fill="#EFA0A0"/><path d="M24.274 77.709h-3.467v2.51h3.467v-2.51z" fill="#EAC0B9"/><path d="M8.938 87.299a4.176 4.176 0 004.173 4.174h25.373V85.1c-.71-.22-1.435-.38-2.17-.48a13.413 13.413 0 01-4.878-1.58H13.083a4.17 4.17 0 00-3.854 2.643 4.177 4.177 0 00-.29 1.617z" fill="#F7D9D5"/><path d="M24.331 18.108h.818c4.82 0 8.683-4.513 10.036-8.97a1.353 1.353 0 011.466-.817 13.36 13.36 0 019.012 4.087 13.374 13.374 0 013.731 9.17 17.069 17.069 0 01-5.074 11.649 16.242 16.242 0 004.37-3.667 16.59 16.59 0 003.41-13.765A16.446 16.446 0 0038.308 2.826a16.429 16.429 0 00-16.851 8.625A16.64 16.64 0 018.459 20.45a16.475 16.475 0 005.254 10.736 16.46 16.46 0 0011.126 4.355h4.426v-1.044a16.921 16.921 0 01-6.71-12.919c0-.765.066-1.53.198-2.284a1.41 1.41 0 011.578-1.185z" fill="#F2E094"/><path d="M13.9 55.736a4.989 4.989 0 00-4.99 4.992v9.167a4.995 4.995 0 004.99 4.993h11.08a13.347 13.347 0 01-.564-3.667v-7.983a9.372 9.372 0 01-.282-2.143v-5.36H13.9z" fill="#F7D9D5"/><path d="M26.981 52.915v8.152a6.63 6.63 0 006.597 6.6h15.28a1.044 1.044 0 00.996-.674c.053-.136.08-.28.076-.426a4.203 4.203 0 00-4.173-4.09H35.721a3.552 3.552 0 01-3.552-3.385v-6.967c0-.366-.874-1.1-2.03-1.297a6.483 6.483 0 00-3.186 0c0 .705 0 1.382.028 2.087zM50.41 99.456V96.07h-5.103v3.385h5.102z" fill="#FCE4D4"/><path d="M76.12 87.299a4.176 4.176 0 00-4.172-4.175h-3.467v8.462h3.41a4.171 4.171 0 004.23-4.287z" fill="#F7D9D5"/><path d="M75.358 44.51a6.116 6.116 0 01-3.693-3.047 4.033 4.033 0 00-4.342-2.115 4.003 4.003 0 00-3.163 4.331 4.006 4.006 0 003.981 3.595h3.411a4.002 4.002 0 003.806-2.765z" fill="#EFA0A0"/><path d="M64.28 103.179h1.832v-7.08h-4.764v4.175a6.99 6.99 0 012.932 2.905z" fill="#EAC0B9"/><path d="M58.528 99.512V96.1h-5.215v3.385H58.5l.028.028z" fill="#FCE4D4"/><path d="M70.848 74.888a4.989 4.989 0 004.99-4.993v-9.167a4.994 4.994 0 00-4.99-4.992H60.98c4.82 4.456 6.568 12.298 7.104 19.152h2.763z" fill="#F7D9D5"/><path d="M28.333 57.174H15.787a4.932 4.932 0 00-4.934 4.936v9.28a4.937 4.937 0 004.934 4.908h12.546V57.174zm44.206 0H59.965l5.018 4.739 2.17 14.442h5.386a4.933 4.933 0 004.933-4.937V62.11a4.937 4.937 0 00-4.933-4.936z" fill="#EAC0B9"/><path d="M26.163 93.532h-10.46v10.578h10.46V93.532z" fill="#F7D9D5"/><path d="M29.913 33.311H25.12c-10.234.62-14.322-9.223-17.339-14.639a18.198 18.198 0 004.896 12.81 18.18 18.18 0 0012.443 5.75h4.793v-3.92zm23.09-13.708v-.902a16.59 16.59 0 01-11.7 13.792v4.034a16.619 16.619 0 0011.84-15.908c-.084-.254-.14-1.016-.14-1.016z" fill="#D8C571"/><path d="M72.99 84.704h-5.638v8.067h4.144c3.073 0 5.638-.508 5.638-3.582v-.48a4.007 4.007 0 00-4.144-4.005zm-33.521 0H14.857a4.002 4.002 0 00-4.003 4.005v.508c0 3.074 2.509 3.582 5.638 3.582h22.977v-8.095z" fill="#EAC0B9"/><path d="M67.409 43.804a1.437 1.437 0 01-1.438-1.41 1.382 1.382 0 011.381-1.41 1.41 1.41 0 010 2.82h.057z" fill="#4C5760"/><path d="M30.625 11.098c1.833-1.06 2.904-2.64 2.39-3.53-.514-.89-2.417-.754-4.251.306-1.834 1.059-2.904 2.64-2.39 3.53.514.89 2.417.753 4.25-.306z" fill="#F7EECB"/><path d="M35.607 40.758a2.369 2.369 0 001.832 1.241 9.497 9.497 0 004.68-.733 2.226 2.226 0 001.63-2.74 2.229 2.229 0 00-.587-1.012s-3.721-.169-4.088-2.82c-.197-1.439-1.578-.367-2.819.959a4.43 4.43 0 00-.648 5.105z" fill="#FCE4D4"/><path d="M25.176 19.603c5.3 0 9.811-4.71 11.277-9.985a11.98 11.98 0 018.137 3.676 11.991 11.991 0 013.337 8.284c0 6.628-5.356 13.962-11.981 13.962s-11.954-7.475-11.954-13.962c.011-.663.078-1.323.197-1.975h.987z" fill="#FCE4D4"/><path d="M43.782 25.244a1.41 1.41 0 01-1.296-.874 1.015 1.015 0 00-.987-.536.958.958 0 00-.959.48 1.438 1.438 0 01-1.832.733 1.382 1.382 0 01-.79-1.749 3.751 3.751 0 013.58-2.285 3.805 3.805 0 013.61 2.398 1.41 1.41 0 01-1.326 1.918v-.085zm-7.584 6.488a4.171 4.171 0 01-3.975-2.567 1.411 1.411 0 011.87-1.72c.33.131.6.383.752.705a1.41 1.41 0 001.353.761 1.325 1.325 0 001.325-.677 1.44 1.44 0 011.945-.761 1.382 1.382 0 01.79 1.777 4.117 4.117 0 01-4.06 2.482z" fill="#4C5760"/><path d="M30.87 70.234s-.45 7.87 6.598 8.462a6.68 6.68 0 016.794 5.782c.17 1.664 0 10.352 0 10.352l-4.37-.254.198-9.59-2.143-1.862s-8.768.282-10.46-5.867a48.958 48.958 0 01-1.663-11.593l5.047 4.57z" fill="#968ECE"/><path d="M25.57 52.294v8.152a8.013 8.013 0 008.007 8.01h15.28a2.48 2.48 0 002.481-2.566 5.643 5.643 0 00-5.638-5.472h-9.98a2.142 2.142 0 01-2.143-2.144v-8.293l-5.949-.987-2.058 3.3z" fill="#FCE4D4"/><path d="M28.925 60.023V52.52c0-1.24 1.636-1.438 1.636-1.438l-3.722-2.51-2.058 3.328v8.151a8.013 8.013 0 008.007 8.011h4.144a8.004 8.004 0 01-7.405-4.965 8.014 8.014 0 01-.602-3.074z" fill="#E5CEC1"/><path d="M62.362 62.082a42.326 42.326 0 012.143 11.283 6.152 6.152 0 01-3.535 6.086 6.143 6.143 0 01-2.414.57 15.522 15.522 0 00-1.776 0c-1.381 0-1.128 1.75.395 1.75h7.245a1.72 1.72 0 001.72-1.721V69.106s-5.131-11.03-3.778-7.024z" fill="#968ECE"/><path d="M53.058 46.625h-3.355a4.566 4.566 0 014.567 4.57v3.243a.198.198 0 01-.197.198h3.355a.197.197 0 00.197-.198v-3.244a4.57 4.57 0 00-4.567-4.569zm-27.685-25.64v.593c-.04.544-.04 1.091 0 1.636 6.57 0 12.574-7.926 11.954-12.073-1.692 4.965-6.315 9.703-11.954 9.844z" fill="#E5CEC1"/><path d="M34.31 25.245a1.409 1.409 0 01-1.297-.875 1.015 1.015 0 00-.987-.536.959.959 0 00-1.015.564 1.438 1.438 0 01-1.832.734 1.382 1.382 0 01-.79-1.75 3.75 3.75 0 013.609-2.284 3.805 3.805 0 013.637 2.341 1.41 1.41 0 01-1.325 1.918v-.112z" fill="#4C5760"/><path d="M20.016 101.543v-5.134a2.228 2.228 0 012.227-2.228h5.13v9.59h-5.13a2.23 2.23 0 01-2.227-2.228z" fill="#EAC0B9"/><path d="M78.375 109.469a1.835 1.835 0 01-1.691 2.623H3.75c.01-.409.066-.816.17-1.213a8.75 8.75 0 00-1.467 4.626h82.124c-1.917-8.462-9.528-12.439-6.202-6.036z" fill="#C5DD7A"/><path d="M68.902 100.386v-6.205h2.989a7.046 7.046 0 007.048-7.052 7.053 7.053 0 00-7.048-7.051h-3.412v-1.834c.007-.075.007-.15 0-.225v-.452h2.622a7.807 7.807 0 007.838-7.672v-9.167a7.815 7.815 0 00-7.64-7.785v-2.82h.281a6.82 6.82 0 006.304-4.214 6.83 6.83 0 00.519-2.612 1.41 1.41 0 00-1.41-1.41 3.185 3.185 0 01-2.819-1.778 6.824 6.824 0 00-6.981-3.581 6.822 6.822 0 00-5.734 5.358h-1.127a1.41 1.41 0 000 2.82h1.156a6.741 6.741 0 006.653 5.417h.282v2.82h-8.458v-2.03a5.643 5.643 0 00-5.638-5.642h-1.325a19.456 19.456 0 00-7.894-7.023 1.378 1.378 0 00-.48 0 4.626 4.626 0 01-1.494-1.185 19.226 19.226 0 0011.507-13.496 19.248 19.248 0 00-4.423-17.178A19.227 19.227 0 0033.624.136a19.221 19.221 0 00-14.651 9.99 13.734 13.734 0 01-12.01 7.587 1.41 1.41 0 00-1.41 1.41 19.298 19.298 0 005.648 13.615 19.28 19.28 0 0013.607 5.65h4.567v.819a12.183 12.183 0 00-5.243 10.944v2.82H13.899a7.808 7.808 0 00-7.81 7.814v9.167a7.815 7.815 0 007.81 7.757h4.088v2.51H13.08a7.047 7.047 0 00-7.048 7.051 7.054 7.054 0 007.048 7.052h1.015v6.882C5.385 104.702 0 109.666 0 115.59A1.411 1.411 0 001.41 117h82.18a1.411 1.411 0 001.41-1.41c0-6.319-6.287-11.706-16.098-15.204zM68.48 83.04h3.412a4.228 4.228 0 014.228 4.23 4.232 4.232 0 01-4.228 4.231H68.48V83.04zm-.366-35.71a4.007 4.007 0 01-4.384-3.596 4.012 4.012 0 013.594-4.386 4.03 4.03 0 014.37 2.059 6.12 6.12 0 003.693 3.046 4.005 4.005 0 01-3.834 2.82l-3.44.057zm2.819 8.462a4.987 4.987 0 014.773 2.996c.267.613.407 1.272.414 1.94v9.167a4.994 4.994 0 01-4.99 4.993h-2.82c-.507-6.883-2.255-14.724-7.104-19.152l9.726.056zm-15.111 46.484h2.396a4.116 4.116 0 014.116 4.118v.649a1.13 1.13 0 01-1.127 1.128h-4.201a3.93 3.93 0 00.197-1.128v-.649a6.857 6.857 0 00-1.381-4.118zm-5.639 0a4.116 4.116 0 014.116 4.118v.649a1.13 1.13 0 01-1.127 1.128h-7.105a.76.76 0 01-.76-.761v-5.134h4.876zm-4.961-2.82V96.07h5.187v3.385h-5.188zm8.006 0V96.07h5.188v3.413h-5.103l-.085-.028zm8.007.789v-4.146h4.736v7.08H64.28a6.996 6.996 0 00-2.932-2.934h-.113zm-7.048-52.21a2.819 2.819 0 012.819 2.82v2.342H47.42a1.748 1.748 0 01-1.748-1.749v-.592a2.821 2.821 0 012.819-2.82h5.695zM24.78 35.54a16.46 16.46 0 01-11.09-4.374 16.476 16.476 0 01-5.233-10.717 16.627 16.627 0 0012.996-8.997 16.442 16.442 0 0110.48-8.28 16.428 16.428 0 0117.942 7.115 16.45 16.45 0 01-1.188 19.273 16.242 16.242 0 01-4.37 3.667 17.069 17.069 0 005.075-11.65 13.373 13.373 0 00-3.73-9.169 13.36 13.36 0 00-9.013-4.087 1.353 1.353 0 00-1.41 1.015c-1.41 4.316-5.243 8.829-10.064 8.829h-.818a1.41 1.41 0 00-1.55 1.156 13.296 13.296 0 00-.254 2.257 16.93 16.93 0 006.569 12.946v1.044l-4.342-.028zm.592-13.962v-.593c5.639 0 10.206-4.88 12.095-9.872a10.552 10.552 0 019.106 10.465c0 5.64-4.708 12.552-10.572 12.552-5.864 0-10.629-6.883-10.629-12.552zm6.653 14.61a10.314 10.314 0 007.782 0 5.644 5.644 0 002.227 3.752 10.23 10.23 0 01-9.84 0l-.169-3.751zm-1.72 5.84a12.738 12.738 0 006.908 2.058 12.91 12.91 0 007.894-2.651 17.934 17.934 0 014.398 3.78h-.846a5.637 5.637 0 00-5.638 5.64v.593a4.57 4.57 0 004.567 4.57h9.219c.865.37 1.672.864 2.396 1.466 5.47 4.683 6.484 15.09 6.625 20.901a1.447 1.447 0 000 .17v14.667H41.33v-8.744c0-.508 0-2.03-4.68-2.595a10.665 10.665 0 01-9.416-10.662v-3.187a9.357 9.357 0 006.343 2.51h15.28a3.89 3.89 0 003.89-4.005 7.053 7.053 0 00-6.99-6.855H35.72a.733.733 0 01-.733-.733v-12.41a1.41 1.41 0 10-2.82 0v1.974a6.732 6.732 0 00-1.55-.48 11.75 11.75 0 00-3.44 0A8.466 8.466 0 0130.363 42l-.056.028zm9.558 54.1h2.566v.197a92.372 92.372 0 00-14.35 1.1v-3.216h10.374v.48a1.41 1.41 0 001.466 1.41l-.056.028zm-11.982-15.91h-.79v-1.043c.255.367.48.734.79 1.044zm2.284-29.39c1.156.197 2.03.93 2.03 1.297v6.967a3.555 3.555 0 003.552 3.554h10.036a4.2 4.2 0 014.173 4.09 1.102 1.102 0 01-.31.79 1.043 1.043 0 01-.761.31H33.577a6.624 6.624 0 01-6.597-6.6V50.913a6.482 6.482 0 013.158-.085h.028zm-16.267 24.06a4.989 4.989 0 01-4.99-4.993v-9.167a4.994 4.994 0 014.99-4.992H24.16v5.359c.01.723.105 1.442.282 2.144v7.982c.016 1.243.206 2.477.564 3.667H13.899zm10.375 2.82v2.51h-3.468v-2.51h3.468zm-15.337 9.59a4.176 4.176 0 014.173-4.174h18.353a13.414 13.414 0 004.877 1.58c.735.1 1.461.26 2.17.48v6.29h-25.37a4.17 4.17 0 01-4.201-4.175zm7.978 9.901v-2.482h8.458v8.998h-8.458v-6.516zM2.82 114.123c.818-3.808 4.99-7.249 11.277-9.901v.96a1.41 1.41 0 001.41 1.41h11.277a1.411 1.411 0 001.41-1.41v-4.88a87.331 87.331 0 0114.35-1.185v8.321a3.588 3.588 0 002.21 3.31c.434.18.9.272 1.37.272h15.054a3.949 3.949 0 003.947-3.977v-1.044h2.425a1.407 1.407 0 001.41-1.41v-1.184c7.245 2.82 12.207 6.487 13.109 10.662l-79.249.056z" fill="#4C5760"/></svg>