<svg width="120" height="120" viewBox="0 0 120 120" fill="none" xmlns="http://www.w3.org/2000/svg">
<path fill-rule="evenodd" clip-rule="evenodd" d="M110 60C110 32.4 87.6 10 60 10C32.4 10 10 32.4 10 60H29.8C29.8 43.3 43.3 29.8 60 29.8C76.7 29.8 90.2 43.3 90.2 60H110Z" fill="#E76525"/>
<path fill-rule="evenodd" clip-rule="evenodd" d="M100.1 50.1001C94.6 50.1001 90.2 54.5001 90.2 60.0001C90.2 76.7001 76.7 90.2001 60 90.2001C43.3 90.2001 29.8 76.7001 29.8 60.0001C29.8 54.5001 25.4 50.1001 19.9 50.1001C14.4 50.1001 10 54.5001 10 60.0001C10 87.6001 32.4 110 60 110C87.6 110 110 87.6001 110 60.0001C110 54.5001 105.6 50.1001 100.1 50.1001Z" fill="#4B4B4B"/>
</svg>
